<?xml version="1.0" encoding="UTF-8"?>
<!DOCTYPE svg PUBLIC "-//W3C//DTD SVG 1.1//EN" "http://www.w3.org/Graphics/SVG/1.1/DTD/svg11.dtd">
<!-- Creator: CorelDRAW 2020 (64-Bit Evaluation Version) -->
<svg xmlns="http://www.w3.org/2000/svg" xml:space="preserve" width="300mm" height="300mm" version="1.1" style="shape-rendering:geometricPrecision; text-rendering:geometricPrecision; image-rendering:optimizeQuality; fill-rule:evenodd; clip-rule:evenodd"
viewBox="0 0 30000 30000"
 xmlns:xlink="http://www.w3.org/1999/xlink"
 xmlns:xodm="http://www.corel.com/coreldraw/odm/2003">
 <defs>
  <style type="text/css">
   <![CDATA[
    .str0 {stroke:#373435;stroke-width:20;stroke-miterlimit:22.9256}
    .fil2 {fill:none}
    .fil0 {fill:#FAFAFA}
    .fil1 {fill:#373435}
   ]]>
  </style>
   <clipPath id="id0">
    <path d="M19422 28817.37c6081.11,-2935.77 7185.54,-12324.94 -279.7,-16665.09 -217.9,-126.66 -798.9,-390.69 -933.2,-499.26 101.94,-76.92 430.33,-184.29 612.56,-278.7 916.02,-474.49 1600.07,-1302.13 1985.88,-2276.58 568.14,-1435.13 426.26,-3556.82 -112.39,-4989.24 -650.24,-1728.84 -2034.77,-2983.25 -3790.65,-3558.32 -1151.35,-377.12 -2065.22,-347.43 -3341.53,-347.43 -582.76,0 -6934.62,-38.38 -7335.9,15.13l-2.72 11828.74 -0.85 3733.92c338.38,-466.1 2138.97,-2460.83 3607.31,-3192.81 409.98,-195.04 830.66,-352.85 1245.86,-462.63 956.27,-252.87 1525.57,-251.26 2564.13,-314.92 -219.96,-209.92 -598.64,-423.4 -837.29,-622.96 -148.82,-124.4 -286.79,-268.75 -394.86,-376.87 -667.42,-667.57 -1134.62,-1411.01 -1394.83,-2403.25 -446.5,-1702.72 162.69,-3487.13 1244.56,-4503.03 1092.17,-1025.55 2941.14,-1563.45 4500.52,-800.37 1410.81,690.39 2176.25,2200.88 2087.83,4001.37 -795.79,349.48 -2522.48,176.7 -3438.75,-378.83 -892.21,-540.91 -1570.33,-1582.44 -1586.11,-2606.98 9.6,-7.39 24.92,-29.85 29.75,-20.8l239.1 -122.85c1019.57,-341.6 2184.19,292.56 2599.3,303.97l-691.29 -554.07c-2121.99,-1248.23 -4309.2,583.41 -4534.28,3478.08 -124.15,1595.76 521.41,2754.4 1468.13,3538.03 1034.39,856.13 2032.56,1182.41 3388.05,1601.68 2494.8,771.58 4088.54,2786.75 4772.24,5222.56 1070.16,3812.8 -979.03,8908.4 -5106.1,9295.62 -812.32,76.21 -1568.22,42.65 -2261.16,-101.9 -64.56,-11.4 274.42,60.4 -194.69,-37.38 -2107.62,-439.27 -3809.99,-1868.97 -4486.76,-3920.47 -997.61,-3023.99 91.34,-6215.15 2790.72,-7883.55 588.59,-363.81 1240.99,-590.7 1811.1,-721.18 570.15,-130.48 1058,-164.5 1506.22,-144.65 448.16,19.85 856.58,93.6 1245.21,178.66 388.57,85.11 757.35,181.58 1040.97,258.15 283.67,76.57 482.23,133.29 771.52,258.09 247.25,106.67 560.71,263.02 857.69,455.1 -587.18,-732.53 -1281.88,-1348.01 -2028.89,-1760.19 -4283.88,-2363.86 -9768.9,27.98 -10739.03,5298.17 -1443.82,7843.41 6174.15,13431.43 13122.33,10077.04z"/>
   </clipPath>
     <mask id="id1">
  <linearGradient id="id2" gradientUnits="userSpaceOnUse" x1="7806.14" y1="40503.76" x2="23428.19" y2="19003.13">
   <stop offset="0" style="stop-opacity:1; stop-color:white"/>
   <stop offset="1" style="stop-opacity:0; stop-color:white"/>
  </linearGradient>
      <rect style="fill:url(#id2)" x="1672.66" y="-1840.3" width="24209.27" height="29347.88"/>
     </mask>
 </defs>
 <g id="Camada_x0020_1">
  <metadata id="CorelCorpID_0Corel-Layer"/>
  <path class="fil0" d="M19422 28817.37c6081.11,-2935.77 7185.54,-12324.94 -279.7,-16665.09 -217.9,-126.66 -798.9,-390.69 -933.2,-499.26 101.94,-76.92 430.33,-184.29 612.56,-278.7 916.02,-474.49 1600.07,-1302.13 1985.88,-2276.58 568.14,-1435.13 426.26,-3556.82 -112.39,-4989.24 -650.24,-1728.84 -2034.77,-2983.25 -3790.65,-3558.32 -1151.35,-377.12 -2065.22,-347.43 -3341.53,-347.43 -582.76,0 -6934.62,-38.38 -7335.9,15.13l-2.72 11828.74 -0.85 3733.92c338.38,-466.1 2138.97,-2460.83 3607.31,-3192.81 409.98,-195.04 830.66,-352.85 1245.86,-462.63 956.27,-252.87 1525.57,-251.26 2564.13,-314.92 -219.96,-209.92 -598.64,-423.4 -837.29,-622.96 -148.82,-124.4 -286.79,-268.75 -394.86,-376.87 -667.42,-667.57 -1134.62,-1411.01 -1394.83,-2403.25 -446.5,-1702.72 162.69,-3487.13 1244.56,-4503.03 1092.17,-1025.55 2941.14,-1563.45 4500.52,-800.37 1410.81,690.39 2176.25,2200.88 2087.83,4001.37 -795.79,349.48 -2522.48,176.7 -3438.75,-378.83 -892.21,-540.91 -1570.33,-1582.44 -1586.11,-2606.98 9.6,-7.39 24.92,-29.85 29.75,-20.8l239.1 -122.85c1019.57,-341.6 2184.19,292.56 2599.3,303.97l-691.29 -554.07c-2121.99,-1248.23 -4309.2,583.41 -4534.28,3478.08 -124.15,1595.76 521.41,2754.4 1468.13,3538.03 1034.39,856.13 2032.56,1182.41 3388.05,1601.68 2494.8,771.58 4088.54,2786.75 4772.24,5222.56 1070.16,3812.8 -979.03,8908.4 -5106.1,9295.62 -812.32,76.21 -1568.22,42.65 -2261.16,-101.9 -64.56,-11.4 274.42,60.4 -194.69,-37.38 -2107.62,-439.27 -3809.99,-1868.97 -4486.76,-3920.47 -997.61,-3023.99 91.34,-6215.15 2790.72,-7883.55 588.59,-363.81 1240.99,-590.7 1811.1,-721.18 570.15,-130.48 1058,-164.5 1506.22,-144.65 448.16,19.85 856.58,93.6 1245.21,178.66 388.57,85.11 757.35,181.58 1040.97,258.15 283.67,76.57 482.23,133.29 771.52,258.09 247.25,106.67 560.71,263.02 857.69,455.1 -587.18,-732.53 -1281.88,-1348.01 -2028.89,-1760.19 -4283.88,-2363.86 -9768.9,27.98 -10739.03,5298.17 -1443.82,7843.41 6174.15,13431.43 13122.33,10077.04z"/>
  <g style="clip-path:url(#id0)">
   <g id="_2975396688576">
    <path id="1" class="fil1 str0" style="mask:url(#id1)" d="M14455.12 25253c-1407.63,423.4 -2271.4,396.52 -2670.73,433.73 -399.33,37.16 -334.28,138.34 184.74,525.42 2621.31,1955.08 6764.3,1436.38 9502.77,62.64 865.13,-433.98 1666.38,-1113.31 2228,-1726.03 561.62,-612.72 883.64,-1158.7 1146.73,-1789.08 263.12,-630.39 467.36,-1345.18 671.6,-1991.9 204.18,-646.73 408.42,-1225.38 340.34,-1917.53 -68.08,-692.08 -408.42,-1497.66 -1094.87,-2535.81 -686.42,-1038.18 -1718.92,-2308.91 -2184.1,-4918.52 -465.18,-2609.56 -363.12,-6558.01 -1752.96,-9054.1 -1389.92,-2496.14 -4271.76,-3539.97 -7210.4,-3965.45 -2938.64,-425.49 -5933.95,-232.61 -8072.67,941.71 -2138.78,1174.3 -3420.85,3330.09 -3761.21,6092.85 -340.38,2762.73 260.98,6132.51 748.83,8390.37 487.85,2257.83 862.3,3403.83 1543.03,3556.96 680.79,153.2 1667.91,-686.41 2490.45,-1491.99 822.6,-805.53 1480.66,-1577.07 2417.33,-2233.4 936.64,-656.25 2151.86,-1197.27 3439.63,-1333.42 1287.76,-136.18 2648.07,132.58 3748.02,567.59 1100.01,435.04 1939.61,1036.4 2529.63,1541.28 589.98,504.89 930.34,913.35 1202.64,1310.49 272.32,397.04 476.55,782.87 658.07,1361.5 181.51,578.66 340.4,1350.17 446.08,1972.07 105.63,621.91 158.15,1094.18 -57.43,1740.91 -215.61,646.72 -699.23,1467.87 -1916.8,2315.27 -1217.54,847.44 -3169.14,1721.08 -4576.72,2144.44z"/>
   </g>
  </g>
  <path class="fil2" d="M19422 28817.37c6081.11,-2935.77 7185.54,-12324.94 -279.7,-16665.09 -217.9,-126.66 -798.9,-390.69 -933.2,-499.26 101.94,-76.92 430.33,-184.29 612.56,-278.7 916.02,-474.49 1600.07,-1302.13 1985.88,-2276.58 568.14,-1435.13 426.26,-3556.82 -112.39,-4989.24 -650.24,-1728.84 -2034.77,-2983.25 -3790.65,-3558.32 -1151.35,-377.12 -2065.22,-347.43 -3341.53,-347.43 -582.76,0 -6934.62,-38.38 -7335.9,15.13l-2.72 11828.74 -0.85 3733.92c338.38,-466.1 2138.97,-2460.83 3607.31,-3192.81 409.98,-195.04 830.66,-352.85 1245.86,-462.63 956.27,-252.87 1525.57,-251.26 2564.13,-314.92 -219.96,-209.92 -598.64,-423.4 -837.29,-622.96 -148.82,-124.4 -286.79,-268.75 -394.86,-376.87 -667.42,-667.57 -1134.62,-1411.01 -1394.83,-2403.25 -446.5,-1702.72 162.69,-3487.13 1244.56,-4503.03 1092.17,-1025.55 2941.14,-1563.45 4500.52,-800.37 1410.81,690.39 2176.25,2200.88 2087.83,4001.37 -795.79,349.48 -2522.48,176.7 -3438.75,-378.83 -892.21,-540.91 -1570.33,-1582.44 -1586.11,-2606.98 9.6,-7.39 24.92,-29.85 29.75,-20.8l239.1 -122.85c1019.57,-341.6 2184.19,292.56 2599.3,303.97l-691.29 -554.07c-2121.99,-1248.23 -4309.2,583.41 -4534.28,3478.08 -124.15,1595.76 521.41,2754.4 1468.13,3538.03 1034.39,856.13 2032.56,1182.41 3388.05,1601.68 2494.8,771.58 4088.54,2786.75 4772.24,5222.56 1070.16,3812.8 -979.03,8908.4 -5106.1,9295.62 -812.32,76.21 -1568.22,42.65 -2261.16,-101.9 -64.56,-11.4 274.42,60.4 -194.69,-37.38 -2107.62,-439.27 -3809.99,-1868.97 -4486.76,-3920.47 -997.61,-3023.99 91.34,-6215.15 2790.72,-7883.55 588.59,-363.81 1240.99,-590.7 1811.1,-721.18 570.15,-130.48 1058,-164.5 1506.22,-144.65 448.16,19.85 856.58,93.6 1245.21,178.66 388.57,85.11 757.35,181.58 1040.97,258.15 283.67,76.57 482.23,133.29 771.52,258.09 247.25,106.67 560.71,263.02 857.69,455.1 -587.18,-732.53 -1281.88,-1348.01 -2028.89,-1760.19 -4283.88,-2363.86 -9768.9,27.98 -10739.03,5298.17 -1443.82,7843.41 6174.15,13431.43 13122.33,10077.04z"/>
 </g>
</svg>
