<?xml version="1.0" encoding="UTF-8" standalone="no"?>
<svg
   xmlns:dc="http://purl.org/dc/elements/1.1/"
   xmlns:cc="http://creativecommons.org/ns#"
   xmlns:rdf="http://www.w3.org/1999/02/22-rdf-syntax-ns#"
   xmlns:svg="http://www.w3.org/2000/svg"
   xmlns="http://www.w3.org/2000/svg"
   xmlns:xlink="http://www.w3.org/1999/xlink"
   xmlns:sodipodi="http://sodipodi.sourceforge.net/DTD/sodipodi-0.dtd"
   xmlns:inkscape="http://www.inkscape.org/namespaces/inkscape"
   version="1.1"
   width="850.39368"
   height="850.39368"
   id="svg50"
   viewBox="0 0 850.39368 850.39368"
   sodipodi:docname="PROJETO NO COREL.cdr">
  <metadata
     id="metadata56">
    <rdf:RDF>
      <cc:Work
         rdf:about="">
        <dc:format>image/svg+xml</dc:format>
        <dc:type
           rdf:resource="http://purl.org/dc/dcmitype/StillImage" />
      </cc:Work>
    </rdf:RDF>
  </metadata>
  <defs
     id="defs54" />
  <sodipodi:namedview
     pagecolor="#ffffff"
     bordercolor="#666666"
     borderopacity="1"
     objecttolerance="10"
     gridtolerance="10"
     guidetolerance="10"
     inkscape:pageopacity="0"
     inkscape:pageshadow="2"
     inkscape:window-width="640"
     inkscape:window-height="480"
     id="namedview52" />
  <path
     d="M 0,0 V 850.3937 H 850.3937 V 0 Z"
     style="fill:#fdfdfd;fill-rule:evenodd"
     id="path2" />
  <g
     id="Layer1000">
    <path
       d="m 297.5893,527.1242 0.004,0.237 h 0.4382 c 0.798,0 1.4494,0.6397 1.4613,1.4374 v 11.7488 l -12.9019,-13.7787 h -0.233 c 0,0 0.2174,1.3428 0.2174,2.9619 v 12.3095 c -0.0159,0.7937 -0.6636,1.4335 -1.4613,1.4335 h -0.4385 l -0.004,0.237 h 4.881 l -0.004,-0.237 h -0.4383 c -0.794,0 -1.4374,-0.6279 -1.4612,-1.4176 v -11.7961 l 12.9214,13.7823 h 0.2174 c 0,0 -0.2174,-1.4967 -0.2174,-3.0209 v -12.2425 c 0.0238,-0.7898 0.6676,-1.4176 1.4613,-1.4176 h 0.4385 l 0.004,-0.237 z m 26.6531,0 v 0.237 h 0.3872 c 0.6712,0 1.2203,0.4779 1.2518,1.1412 v 9.3475 c -0.008,3.2661 -2.1167,5.4459 -5.2801,5.4459 -3.0209,0 -5.0313,-2.3023 -5.0313,-5.7537 v -9.0437 c 0.0278,-0.6633 0.5769,-1.1372 1.2481,-1.1372 h 0.387 v -0.237 h -4.8141 v 0.237 h 0.3872 c 0.6832,0 1.2399,0.4935 1.2518,1.1729 v 9.3555 c 0,3.6924 2.6303,6.1526 6.5713,6.1526 3.8307,0 6.3858,-2.4761 6.3858,-6.1923 v -9.371 c 0.0434,-0.6517 0.5846,-1.1177 1.2518,-1.1177 h 0.3872 v -0.237 z m 16.567,-0.0238 c -1.0267,-0.004 -2.4128,-0.2447 -2.855,-0.4303 v 2.9775 l 0.237,-0.004 v -0.4223 c 0,-0.7583 0.6001,-1.3782 1.3544,-1.41 h 4.494 v 14.2129 c -0.0354,0.8056 -0.7027,1.4494 -1.5162,1.4494 h -0.3002 l -0.004,0.237 h 5.1851 l -0.004,-0.237 h -0.2999 c -0.8215,0 -1.4891,-0.6517 -1.5166,-1.4689 v -14.1934 h 4.4901 c 0.7543,0.0318 1.3507,0.6517 1.3507,1.41 v 0.4223 l 0.241,0.004 v -2.9775 c -0.4465,0.1856 -1.8287,0.4263 -2.8554,0.4303 z m 20.4098,0.0238 0.004,0.237 h 0.3002 c 0.8295,0 1.5007,0.6633 1.5166,1.4887 v 13.1468 c -0.0199,0.8175 -0.6911,1.4769 -1.5166,1.4769 h -0.3002 l -0.004,0.237 h 5.1775 l -0.004,-0.237 h -0.3002 c -0.8294,0 -1.5007,-0.6633 -1.5165,-1.4888 v -14.1222 c 0.3081,0.0119 1.7416,-0.0473 2.95,0.0199 1.7614,0.0946 2.8789,1.4689 2.9381,3.6093 0.0159,0.5213 -0.0473,1.0862 -0.15,1.4179 -0.6712,2.1365 -2.4681,2.4287 -3.7003,2.4602 -0.7109,0.0198 -1.2518,0.008 -1.2518,0.008 v 0.2211 c 0.8688,0 1.5599,0.8215 2.1759,1.5996 0.1857,0.2291 2.8553,4.1111 3.1238,4.4348 0.7424,0.8887 1.9272,2.0773 4.1346,2.0773 h 1.2994 v -0.237 c -1.3941,-0.0119 -2.2708,-0.7504 -3.2224,-1.7929 -0.9162,-1.0032 -2.962,-3.9175 -2.962,-3.9175 -0.458,-0.6477 -1.1848,-1.4335 -1.6942,-1.6665 2.2787,0 4.0243,-2.2275 4.0243,-4.5179 0,-2.7643 -1.7575,-4.4546 -4.6324,-4.4546 z m 28.1857,16.3494 h -0.3002 c -0.8294,0 -1.5046,-0.6633 -1.5165,-1.4888 V 528.834 c 0.0198,-0.8172 0.6911,-1.4768 1.5165,-1.4768 h 0.3002 l 0.004,-0.237 h -5.1854 l 0.004,0.237 h 0.3002 c 0.8255,0 1.4967,0.6596 1.5166,1.4808 v 13.1468 c -0.0159,0.8255 -0.6872,1.4888 -1.5166,1.4888 h -0.3002 l -0.004,0.237 h 5.1854 z m 25.2394,-6.6779 c -0.5372,4.8535 -3.3843,6.5279 -6.749,6.5359 -3.9847,-0.095 -6.6858,-3.1989 -6.6858,-7.9617 0,-4.7152 2.6538,-7.8667 6.8202,-7.8667 2.8471,0 5.1692,1.4692 5.8881,4.2375 h 0.1973 l -0.4777,-3.3489 c -1.3861,-0.9121 -3.2819,-1.5993 -5.6038,-1.5993 -5.2129,0 -8.6014,3.4594 -8.6014,8.6012 0,5.2364 3.507,8.625 8.4631,8.6485 3.2896,0 5.4102,-1.4888 6.6583,-3.5266 l 0.2883,-3.7199 z m 15.6509,6.6779 h -0.3001 c -0.8295,0 -1.5047,-0.6633 -1.5166,-1.4888 V 528.834 c 0.0199,-0.8172 0.6911,-1.4768 1.5166,-1.4768 h 0.3001 l 0.004,-0.237 h -5.1854 l 0.004,0.237 h 0.3002 c 0.8254,0 1.4966,0.6596 1.5165,1.4808 v 13.1468 c -0.0159,0.8255 -0.6871,1.4888 -1.5165,1.4888 h -0.3002 l -0.004,0.237 h 5.1854 z m 18.7827,-16.6811 c -5.0392,0 -8.5184,3.4515 -8.5184,8.625 0,5.1732 3.4792,8.6247 8.5184,8.6247 5.0391,0 8.5144,-3.4515 8.5144,-8.6247 0,-5.1735 -3.4753,-8.625 -8.5144,-8.625 z m 0,16.5391 c -4.0204,0 -6.7017,-3.1635 -6.7017,-7.9141 0,-4.7509 2.6813,-7.9143 6.7017,-7.9143 4.0201,0 6.6977,3.1634 6.6977,7.9143 0,4.7506 -2.6776,7.9141 -6.6977,7.9141 z m 30.863,-16.2074 0.004,0.237 h 0.4382 c 0.798,0 1.4494,0.6397 1.4613,1.4374 v 11.7488 l -12.9019,-13.7787 h -0.233 c 0,0 0.2174,1.3428 0.2174,2.9619 v 12.3095 c -0.0158,0.7937 -0.6636,1.4335 -1.4612,1.4335 h -0.4386 l -0.004,0.237 h 4.8809 l -0.004,-0.237 h -0.4383 c -0.7939,0 -1.4374,-0.6279 -1.4612,-1.4176 v -11.7961 l 12.9214,13.7823 h 0.2174 c 0,0 -0.2174,-1.4967 -0.2174,-3.0209 v -12.2425 c 0.0238,-0.7898 0.6676,-1.4176 1.4613,-1.4176 h 0.4385 l 0.004,-0.237 z m 19.9832,16.3494 h -0.3002 c -0.8294,0 -1.5047,-0.6633 -1.5166,-1.4888 V 528.834 c 0.0199,-0.8172 0.6911,-1.4768 1.5166,-1.4768 h 0.3002 l 0.004,-0.237 h -5.1854 l 0.004,0.237 h 0.3002 c 0.8254,0 1.4967,0.6596 1.5165,1.4808 v 13.1468 c -0.0159,0.8255 -0.6871,1.4888 -1.5165,1.4888 h -0.3002 l -0.004,0.237 h 5.1854 z m 13.1391,-11.0614 c -0.7463,-0.6913 -0.9558,-1.5678 -0.9558,-2.1841 0,-1.4454 1.169,-2.7249 2.9146,-2.7249 1.4768,0 2.6736,0.9241 2.6657,2.4406 h 0.229 v -2.626 -0.2804 h -0.94 c -0.6278,-0.1383 -1.4099,-0.2449 -2.0299,-0.2449 -2.7011,0 -4.1663,2.0061 -4.1663,4.0043 0,0.9164 0.3279,2.0616 1.2835,2.9383 l 4.5414,4.2138 c 0.5924,0.5487 0.928,1.2832 0.928,2.2076 0,1.8955 -1.4453,3.0801 -3.175,3.1751 -2.1087,0.1184 -3.6528,-1.4454 -3.4161,-3.8861 h -0.2092 c -0.3594,1.0622 -0.4501,2.5708 -0.2724,3.3016 0.9321,0.9635 2.8511,1.2951 4.0122,1.2951 2.7249,0 4.4351,-1.8085 4.4351,-4.4308 0,-0.9559 -0.241,-2.014 -1.1889,-2.8868 z m 18.1979,-5.3118 c -1.0267,-0.004 -2.4129,-0.2447 -2.8551,-0.4303 v 2.9775 l 0.237,-0.004 v -0.4223 c 0,-0.7583 0.6001,-1.3782 1.3544,-1.41 h 4.494 v 14.2129 c -0.0354,0.8056 -0.7027,1.4494 -1.5162,1.4494 h -0.3002 l -0.004,0.237 h 5.1852 l -0.004,-0.237 h -0.2999 c -0.8215,0 -1.4891,-0.6517 -1.5166,-1.4689 v -14.1934 h 4.4901 c 0.7543,0.0318 1.3507,0.6517 1.3507,1.41 v 0.4223 l 0.241,0.004 v -2.9775 c -0.4465,0.1856 -1.8286,0.4263 -2.8554,0.4303 z m 25.8437,-0.3079 h -0.2134 c 0,0.5213 -0.8765,2.4407 -0.8765,2.4407 l -5.3711,12.7516 c -0.4816,1.0545 -1.3584,1.4888 -2.0772,1.4888 h -0.2132 v 0.237 h 4.7707 v -0.2331 h -0.2095 c -0.608,0 -1.2398,-0.5332 -0.9042,-1.4728 l 1.5834,-4.0519 h 6.3859 l 1.5126,4.036 c 0.3475,0.9476 -0.2883,1.4887 -0.9006,1.4887 h -0.2052 v 0.2331 h 5.3354 v -0.237 h -0.2016 c -0.7225,0 -1.5993,-0.4343 -2.0812,-1.4888 z m -3.2303,10.4494 2.9814,-7.6059 2.8554,7.6059 z"
       style="fill:#be317f;fill-rule:evenodd;stroke:#be317f;stroke-width:0.216;stroke-linecap:butt;stroke-linejoin:miter;stroke-dasharray:none"
       id="path4" />
    <g
       id="Layer1001">
      <path
         d="m 626.6341,494.9955 c 0,-3.5844 0.0995,-6.0398 1.7575,-9.277 0.4873,-0.9513 1.0483,-1.8212 1.6713,-2.6473 1.0729,-1.4227 1.4794,-1.7492 2.6629,-2.8559 5.826,-5.4484 15.152,-5.995 21.9436,-1.4828 0.4912,0.3266 0.7979,0.5851 1.2319,0.9278 1.4048,1.1098 3.2057,3.0646 4.1346,4.623 0.8756,1.469 0.8385,1.3289 1.4882,2.9501 0.2418,0.6032 0.362,1.061 0.5562,1.7229 1.1423,3.8931 0.5689,9.2622 -1.2031,12.7953 -2.3522,4.6907 -6.9321,8.5889 -12.1697,9.6655 -0.6281,0.129 -1.1361,0.2186 -1.8394,0.3203 -0.396,0.0576 -0.6295,0.042 -1.0355,0.0448 -1.3036,0.009 0.0477,0.1817 -2.0432,0.01 -0.3472,-0.0287 -0.7191,0.0139 -1.0678,-0.0125 -0.5253,-0.04 -1.3034,-0.1704 -1.8754,-0.2846 -1.4238,-0.2846 -3.6635,-1.059 -4.8294,-1.7699 -3.2196,-1.963 -5.8246,-4.3753 -7.5424,-7.8135 -0.5491,-1.0992 -0.8626,-1.8569 -1.2263,-3.092 -0.2939,-0.9975 -0.614,-2.577 -0.614,-3.8239 z m 39.1235,-1.3357 v 0.985 0.1148 0.116 c 0,4.2375 -1.9627,8.9084 -4.4679,11.9653 -1.3845,1.6891 -1.5475,1.7631 -3.0014,3.117 -1.1301,1.0525 -3.2468,2.3195 -4.5714,2.9871 -3.3284,1.6761 -6.1934,1.9585 -10.0412,1.9585 -4.2857,0 -8.0824,-1.5957 -11.2801,-3.8384 -1.9211,-1.3473 -2.4126,-2.0682 -3.8725,-3.5657 -1.0896,-1.1174 -2.3059,-3.151 -3.0089,-4.5485 -1.8471,-3.6712 -2.0002,-6.2623 -2.0002,-10.3538 0,-9.1004 7.7426,-17.7185 16.5691,-19.5407 3.0915,-0.638 6.2116,-0.6429 9.303,0.0423 1.4891,0.3299 2.6139,0.771 3.8739,1.2858 2.0775,0.8487 4.6,2.7 6.1072,4.2108 0.9145,0.917 1.6325,1.7076 2.414,2.7445 1.3306,1.7652 1.9732,3.1011 2.7414,5.0559 0.2429,0.618 0.445,1.2966 0.6117,1.9072 0.5533,2.0282 0.6177,3.4985 0.6233,5.3569 z"
         style="fill:#1b1918;fill-rule:evenodd"
         id="path6" />
      <path
         d="m 287.2449,493.7961 c 0,-5.6673 2.3913,-9.8889 5.2506,-12.7423 7.9103,-7.8945 20.5307,-7.0945 27.5125,2.1887 2.3054,3.0656 3.3602,6.5262 3.3602,10.7937 0,7.4523 -4.7115,13.633 -10.6824,16.3086 -0.9998,0.4481 -2.1336,0.8492 -3.3477,1.0922 l -4.0813,0.466 c -0.9689,-0.0513 -3.0544,-0.2523 -3.9734,-0.4748 -3.4452,-0.8345 -6.256,-2.355 -8.7301,-4.8277 l -2.0211,-2.4177 c -2.0619,-3.1223 -3.2873,-6.0105 -3.2873,-10.3867 z m -3.1201,-0.1199 c 0,8.4935 4.2672,14.2642 10.1993,18.2305 2.4894,1.6645 6.707,2.9968 10.0823,2.9968 3.8882,0 6.7853,-0.3303 10.0423,-1.9574 2.9556,-1.4765 6.4219,-4.2823 8.2723,-7.0843 0.3481,-0.5272 0.7132,-1.0151 1.0032,-1.5157 3.2839,-5.6681 3.74,-13.5402 0.8855,-19.4661 -0.6389,-1.3266 -2.0114,-3.5912 -3.0705,-4.727 -0.2517,-0.2699 -0.4002,-0.3674 -0.6406,-0.6786 -0.7736,-1.001 -2.4395,-2.3049 -3.4279,-3.0507 -5.6855,-4.2897 -14.237,-4.9703 -20.7437,-2.0545 -2.6113,1.1704 -5.8362,3.5728 -7.5801,5.7373 l -1.1602,1.4788 c -0.3796,0.561 -0.6701,1.0024 -1.0344,1.6047 -1.6909,2.797 -2.8275,6.6263 -2.8275,10.4862 z"
         style="fill:#1b1918;fill-rule:evenodd"
         id="path8" />
      <path
         d="m 590.8711,473.5284 v 40.5354 c 0,0.6339 1.3589,0.36 3.1204,0.36 V 479.285 c 0.4249,0.4887 0.3487,0.5139 0.6505,1.0287 l 1.9486,3.3299 c 0.4209,0.7721 0.8166,1.4788 1.2631,2.2155 3.812,6.2926 7.664,13.4963 11.4761,19.8329 0.8869,1.4746 1.6968,2.9282 2.5494,4.4082 l 1.937,3.3412 c 0.733,1.2265 -0.008,0.9824 3.4574,0.9824 v -41.2551 h -3.0005 v 34.899 c -0.3257,-0.2387 -3.4104,-5.7671 -3.7891,-6.4074 l -2.4925,-4.345 c -0.4212,-0.7727 -0.8716,-1.447 -1.279,-2.1999 -0.4033,-0.7453 -0.8512,-1.4176 -1.279,-2.1997 -1.9369,-3.5436 -4.4192,-7.4665 -6.3229,-10.9511 -0.6316,-1.1563 -4.8481,-8.1485 -4.9992,-8.7959 -1.1103,0 -3.2403,-0.2415 -3.2403,0.3597 z"
         style="fill:#1b1918;fill-rule:evenodd"
         id="path10" />
      <path
         d="m 456.3394,514.4238 h 3.0005 v -35.2587 c 0.1091,0.1256 0.0255,0.0198 0.1528,0.2072 l 8.8066,15.1846 c 2.3531,4.3164 5.2421,8.9397 7.685,13.3079 l 3.2083,5.5485 c 0.7495,1.271 0.0224,1.0105 3.4294,1.0105 v -41.2551 h -3.0005 v 34.899 l -3.799,-6.5174 c -0.432,-0.7906 -0.8396,-1.4162 -1.2784,-2.2005 -1.9919,-3.5612 -4.4107,-7.4381 -6.2825,-10.8715 -2.3023,-4.2236 -5.7183,-10.0014 -8.2527,-14.2991 -0.7586,-1.2863 -3e-4,-1.0105 -3.6695,-1.0105 z"
         style="fill:#1b1918;fill-rule:evenodd"
         id="path12" />
      <path
         d="m 382.4133,511.4256 h -4.8005 v -22.4265 c 5.3796,0 9.7653,-0.3325 13.3398,4.5385 2.8296,3.8554 2.8557,9.0564 0.199,12.9487 -0.424,0.6213 -0.7815,0.949 -1.2274,1.5318 l -1.3881,1.2512 c -1.6727,1.2748 -3.7349,2.1563 -6.1228,2.1563 z m 0.5998,-25.6646 h -5.4003 v -9.4742 h 5.0403 c 2.3428,0 4.2678,1.8992 4.5122,4.6069 0.242,2.6841 -2.2199,4.8673 -4.1522,4.8673 z m -8.4005,28.6628 h 8.2806 c 3.878,0 6.8238,-1.7189 8.7908,-3.6878 2.3519,-2.3542 3.7882,-4.555 4.3951,-8.0805 0.7016,-4.0742 -0.343,-7.4851 -1.8967,-10.0669 -0.79,-1.3128 -1.7977,-2.3083 -2.8579,-3.3801 -0.6837,-0.6911 -2.7414,-2.2742 -3.871,-2.368 0.1769,-0.6616 4.4847,-4.1063 1.8431,-9.2773 -0.572,-1.1194 -1.2305,-1.8745 -2.1651,-2.6336 -0.2154,-0.1752 -0.3075,-0.2702 -0.5388,-0.421 -0.4057,-0.2642 -0.7521,-0.4776 -1.2453,-0.6743 -0.9938,-0.3972 -1.9508,-0.6656 -3.2941,-0.6656 h -7.4407 z"
         style="fill:#1b1918;fill-rule:evenodd"
         id="path14" />
      <path
         d="m 439.058,497.2742 h -7.2006 v -20.9874 h 6.7207 c 2.7357,0 5.3427,1.1976 7.1728,3.026 0.2729,0.273 0.3135,0.3268 0.559,0.6406 1.7229,2.202 2.3224,3.2777 2.4956,6.6079 0.0796,1.5304 -0.2172,2.9936 -0.7277,4.2556 -1.3975,3.4543 -5.1729,6.4573 -9.0198,6.4573 z m -10.321,-23.7458 v 40.8954 h 3.1204 v -14.0315 h 6.7207 c 0.3311,0 0.5216,0.474 0.6965,0.743 2.8111,4.3197 5.7489,9.1168 8.5441,13.2885 h 3.7205 c -2.7167,-4.0541 -5.4845,-8.5867 -8.2088,-12.6643 -0.4241,-0.6347 -0.8051,-1.1917 -1.152,-1.8471 1.4113,-0.6766 1.2157,-0.1434 3.7207,-1.7983 0.9406,-0.6213 2.2434,-1.7864 2.9498,-2.6889 2.2705,-2.9018 3.0503,-5.1976 3.0503,-9.0643 0,-3.8852 -1.8989,-7.1312 -3.8701,-9.0848 -1.0505,-1.0412 -2.3848,-2.0772 -3.7293,-2.7493 -1.3677,-0.6837 -3.5852,-1.3581 -5.1216,-1.3581 h -10.0809 c -0.2766,0 -0.3603,0.0833 -0.3603,0.3597 z"
         style="fill:#1b1918;fill-rule:evenodd"
         id="path16" />
      <path
         d="m 532.4261,497.2742 h -7.2006 v -20.9874 h 6.7207 c 2.6527,0 4.6049,0.9139 6.4636,2.4154 3.0449,2.4596 4.295,6.1313 3.6368,10.0766 -0.229,1.3731 -0.7231,2.5906 -1.4578,3.7003 -0.9635,1.4551 -2.5257,2.9399 -4.0811,3.7171 -1.0519,0.5256 -2.5089,1.078 -4.0816,1.078 z m -10.3209,-23.7458 v 40.8954 h 3.1203 v -14.0315 h 6.7207 c 0.3623,0 0.5689,0.4712 0.7152,0.7243 0.1961,0.339 0.3263,0.5386 0.5573,0.8821 0.411,0.6109 0.7421,1.1682 1.1287,1.7502 l 6.8395,10.6749 h 3.7202 l -9.3606,-14.5114 c 1.0516,-0.5042 2.2572,-0.6769 3.7395,-1.7795 0.5898,-0.4391 0.9892,-0.722 1.5111,-1.2484 0.4674,-0.4711 0.9468,-0.8938 1.3791,-1.3799 1.7172,-1.9307 3.0911,-5.1755 3.0911,-7.9447 0,-3.3143 -0.4399,-5.8941 -2.3813,-8.5337 -1.3329,-1.8116 -3.0873,-3.4135 -5.1367,-4.4612 -1.0398,-0.5312 -3.4889,-1.3963 -4.9632,-1.3963 h -10.3209 c -0.2764,0 -0.36,0.0833 -0.36,0.3597 z"
         style="fill:#1b1918;fill-rule:evenodd"
         id="path18" />
      <path
         d="m 267.5633,497.2742 h -7.3207 v -20.9874 h 6.8405 c 5.3459,0 10.2011,4.7806 10.2011,9.9539 0,2.0083 -0.0842,3.2266 -0.9187,4.9586 -0.8243,1.7116 -1.7819,2.8862 -3.2803,4.0374 -1.4703,1.1299 -3.4585,2.0375 -5.5219,2.0375 z m -10.3209,17.1496 h 3.0002 v -14.0315 h 6.8405 c 0.3411,0 1.0344,1.2949 1.2385,1.6407 l 2.2476,3.5105 c 0.3549,0.5944 0.7288,1.1043 1.1251,1.754 l 3.3814,5.2555 c 0.2605,0.3883 1.0307,1.5052 1.1282,1.8708 h 3.7205 c -0.0955,-0.3571 -0.8521,-1.4578 -1.08,-1.7991 -0.8334,-1.2453 -8.0402,-12.2604 -8.161,-12.7123 0.493,-0.2361 1.1251,-0.3784 1.9613,-0.7985 3.1074,-1.5607 5.6078,-4.1122 6.8695,-7.4066 1.5324,-4.0014 1.027,-8.9918 -1.3717,-12.4407 -0.4748,-0.6826 -0.9578,-1.2192 -1.4936,-1.8652 -0.2973,-0.3586 -0.483,-0.464 -0.8226,-0.7373 -2.26,-1.8176 -4.9198,-3.4954 -8.1431,-3.4954 h -10.4408 z"
         style="fill:#1b1918;fill-rule:evenodd"
         id="path20" />
      <path
         d="m 553.428,511.3057 h -0.72 v -34.899 c 3.0861,0 5.9981,0.3308 8.5187,1.4409 1.1432,0.5034 1.7918,0.8331 2.8105,1.5088 2.3735,1.5741 4.6659,4.4544 5.8354,7.121 2.0551,4.6851 2.0268,9.8821 0.0669,14.5848 -1.6744,4.0184 -4.9133,7.1424 -8.9158,8.8395 -1.8397,0.7801 -5.0167,1.404 -7.5957,1.404 z m -3.7205,3.1181 c 7.4444,0 13.2662,-0.3653 18.8119,-5.9065 3.4035,-3.401 6.4593,-8.9062 5.917,-15.8071 -0.1834,-2.3349 -0.1264,-2.4398 -0.701,-4.6962 -0.3183,-1.2503 -0.6262,-1.9091 -1.1038,-2.9747 -0.7333,-1.6367 -1.5435,-2.8922 -2.6578,-4.2996 -0.8648,-1.0927 -1.6293,-1.9051 -2.7076,-2.8111 -1.0372,-0.8713 -1.9548,-1.5307 -3.1964,-2.2022 -0.5995,-0.3243 -1.2597,-0.5839 -1.9142,-0.8456 -0.6557,-0.2619 -1.3473,-0.502 -2.0563,-0.7035 -3.0242,-0.8595 -6.6367,-1.0086 -10.3918,-1.0086 z"
         style="fill:#1b1918;fill-rule:evenodd"
         id="path22" />
      <path
         d="m 401.6149,514.4238 h 21.0019 v -2.9982 h -18.0017 v -16.0704 h 18.0017 c 0,-1.7601 0.2738,-3.1181 -0.3603,-3.1181 h -17.6414 v -15.9503 h 18.0017 v -3.1181 h -21.0019 z"
         style="fill:#1b1918;fill-rule:evenodd"
         id="path24" />
      <path
         d="m 237.5606,480.4843 c 0.0901,0.387 0.1678,0.5276 0.3093,0.8904 l 2.4661,6.7697 c 0.2231,0.6205 0.4224,1.1787 0.6588,1.8604 0.2307,0.665 0.4376,1.2727 0.6967,1.942 l 1.3896,3.8883 h -11.1609 c 0.133,-0.2772 0.1945,-0.542 0.3138,-0.8858 z m -15.6013,33.9395 h 3.2403 l 1.3373,-3.8205 c 0.3093,-0.8269 4.1349,-11.0721 4.1831,-11.6501 h 13.5613 c 0.0983,0.4215 0.2162,0.6406 0.3424,0.9768 l 1.0533,2.905 c 0.4576,1.3561 0.9454,2.5262 1.4106,3.8673 l 2.834,7.7215 h 3.1204 c -0.0425,-0.5108 -0.2565,-0.9235 -0.4294,-1.3699 l -2.3814,-6.6147 c -0.9825,-2.5393 -1.9846,-5.6662 -2.9498,-8.0858 -0.9603,-2.4075 -1.9454,-5.5494 -2.9154,-8 -1.6296,-4.1178 -3.2454,-9.3563 -4.8852,-13.4671 l -1.44,-3.9574 c -0.3254,-0.8164 -0.2129,-1.0358 -0.6001,-1.3193 l -1.885,5.3119 c -1.6308,4.1207 -3.2398,9.2404 -4.8708,13.3616 -0.3708,0.9366 -0.6287,1.7796 -0.9944,2.7241 -1.7685,4.5723 -4.1312,11.2927 -5.8263,16.0047 l -1.44,3.9575 c -0.1163,0.3229 -0.4363,1.1097 -0.4649,1.4544 z"
         style="fill:#1b1918;fill-rule:evenodd"
         id="path26" />
      <path
         d="m 502.3035,480.6043 h 0.2401 c 0.1604,0.6885 0.4161,1.2101 0.6463,1.8725 l 4.1388,11.4545 c 0.2058,0.5721 0.4785,1.4188 0.7353,1.9038 h -11.1608 c 0.068,-0.8184 5.3249,-14.3238 5.4003,-15.2308 z m -15.4815,33.8195 h 3.2403 c 0.4368,-0.9096 2.2629,-6.3606 2.8452,-7.8304 l 2.1217,-5.7951 c 0.1344,-0.3878 0.2117,-0.6106 0.3478,-0.9717 0.1502,-0.3997 0.1522,-0.8734 0.5661,-0.8734 h 12.9611 c 0.4658,0 0.5783,0.8742 0.9094,1.7294 l 4.9711,13.7412 h 3.2403 c -0.0811,-0.3469 -0.3393,-0.9847 -0.4649,-1.3345 l -5.3399,-14.6917 c -0.6216,-1.8419 -1.3062,-3.5121 -1.95,-5.3671 l -2.88,-7.9152 c -0.3279,-0.9448 -0.6678,-1.8286 -0.9912,-2.7272 -0.6483,-1.8028 -1.3391,-3.5362 -1.9494,-5.3677 -0.2866,-0.8606 -0.6613,-1.7365 -0.9607,-2.6376 -0.2001,-0.6018 -0.9028,-2.2621 -0.9453,-2.7732 -0.4082,0.2988 -1.8888,4.7611 -2.0552,5.262 -0.5901,1.777 -1.3274,3.5243 -1.9493,5.3674 -0.6217,1.8419 -1.3062,3.5121 -1.95,5.3671 z"
         style="fill:#1b1918;fill-rule:evenodd"
         id="path28" />
      <path
         d="m 184.6361,492.717 c 0,5.0879 0.2168,5.9043 1.936,10.1778 l 0.8731,1.6461 c 0.3064,0.5088 0.6724,1.0459 1.0125,1.5066 1.4477,1.961 3.0782,3.5903 5.0403,5.0371 0.8521,0.6279 2.1889,1.4774 3.1405,1.8987 2.5424,1.125 5.2367,1.7747 7.9484,1.9202 h 2.3405 c 2.547,-0.1378 5.0755,-0.7288 7.4739,-1.7964 1.5752,-0.7012 3.1167,-1.6506 4.4555,-2.743 0.4013,-0.3274 1.0369,-0.8212 1.3022,-1.2172 -0.2911,-0.4346 -0.6732,-0.6089 -1.0517,-0.9876 -0.5431,-0.5431 -0.8447,-0.6577 -1.1083,-1.0511 -0.6474,0.4334 -1.1376,0.9473 -1.8238,1.4153 -2.1892,1.493 -3.8529,2.3928 -6.7476,2.9713 -1.5888,0.3175 -4.1791,0.4929 -5.902,0.2426 -4.0326,-0.5853 -6.1606,-1.5862 -9.1698,-3.9086 -0.9743,-0.7521 -2.4415,-2.3381 -3.223,-3.375 -1.6708,-2.2167 -3.3764,-5.8473 -3.3764,-9.6981 0,-3.4884 0.1761,-5.7501 1.7195,-8.8351 1.2935,-2.5852 3.6426,-5.3895 6.0806,-6.9959 3.1196,-2.0554 5.9389,-3.1175 10.2014,-3.1175 2.6019,0 5.1723,0.5757 7.0021,1.3975 2.1753,0.9773 2.8573,1.4649 4.5853,2.8533 0.3362,0.2699 0.2523,0.3192 0.6537,0.4263 0.2735,-0.1831 0.3237,-0.2729 0.5686,-0.511 0.2676,-0.2605 0.3286,-0.2605 0.5961,-0.4839 0.3734,-0.3118 0.8643,-0.673 0.9953,-1.1639 -0.4116,-0.1097 -0.3966,-0.2191 -0.6894,-0.5103 -3.2505,-3.2306 -9.1485,-5.1261 -13.7117,-5.1261 -5.7589,0 -10.7725,2.0701 -14.6112,5.9062 -1.196,1.1951 -1.3938,1.3031 -2.4477,2.7111 -2.261,3.0209 -4.0629,7.2283 -4.0629,11.4106 z"
         style="fill:#1b1918;fill-rule:evenodd"
         id="path30" />
      <path
         d="m 332.6088,473.5284 v 40.8954 h 18.8416 v -2.9982 h -15.7212 v -38.2569 h -2.7604 c -0.2764,0 -0.36,0.0833 -0.36,0.3597 z"
         style="fill:#1b1918;fill-rule:evenodd"
         id="path32" />
      <path
         d="m 580.5502,514.4238 h 3.1204 v -40.8954 c 0,-0.2764 -0.0837,-0.3597 -0.36,-0.3597 h -2.7604 z"
         style="fill:#1b1918;fill-rule:evenodd"
         id="path34" />
    </g>
    <defs
       id="defs43">
      <linearGradient
         id="grad1">
        <stop
           offset="0%"
           stop-color="#831e62"
           stop-opacity="1.0000"
           id="stop37" />
        <stop
           offset="100%"
           stop-color="#be317f"
           stop-opacity="1.0000"
           id="stop39" />
      </linearGradient>
      <linearGradient
         xlink:href="#grad1"
         id="grad2"
         x1="0"
         y1="0"
         x2="0"
         y2="1"
         gradientTransform="rotate(19,0.5,0.5)"
         gradientUnits="objectBoundingBox" />
    </defs>
    <path
       d="m 448.7672,447.0012 c 34.3091,-16.5634 40.5403,-69.5364 -1.578,-94.0232 -1.2294,-0.7146 -4.5074,-2.2042 -5.2651,-2.8168 0.5751,-0.434 2.4279,-1.0397 3.456,-1.5723 5.1681,-2.6771 9.0275,-7.3466 11.2042,-12.8444 3.2054,-8.0969 2.4049,-20.0673 -0.6341,-28.1489 -3.6686,-9.754 -11.48,-16.8313 -21.3865,-20.0758 -6.4959,-2.1277 -11.6519,-1.9601 -18.8527,-1.9601 -3.2879,0 -39.1246,-0.2166 -41.3887,0.0853 l -0.0153,66.7369 -0.005,21.0665 c 1.9091,-2.6297 12.0679,-13.8838 20.3522,-18.0136 2.3131,-1.1004 4.6865,-1.9908 7.0291,-2.6101 5.3951,-1.4267 8.6071,-1.4176 14.4666,-1.7768 -1.241,-1.1843 -3.3775,-2.3888 -4.724,-3.5147 -0.8396,-0.7018 -1.618,-1.5162 -2.2277,-2.1262 -3.7655,-3.7664 -6.4015,-7.9609 -7.8695,-13.559 -2.5192,-9.6066 0.9178,-19.6741 7.0217,-25.4058 6.1619,-5.7861 16.5937,-8.8208 25.3916,-4.5156 7.9597,3.8951 12.2782,12.4172 11.7793,22.5754 -4.4898,1.9718 -14.2316,0.997 -19.4011,-2.1373 -5.0338,-3.0518 -8.8597,-8.928 -8.9487,-14.7084 0.0541,-0.0417 0.1406,-0.1684 0.1678,-0.1174 l 1.349,-0.693 c 5.7524,-1.9273 12.3231,1.6506 14.665,1.7149 l -3.9001,-3.126 c -11.9722,-7.0424 -24.3122,3.2916 -25.5822,19.6231 -0.7004,9.0031 2.9418,15.5401 8.2832,19.9613 5.8359,4.8302 11.4675,6.671 19.1151,9.0365 14.0754,4.3532 23.0672,15.7227 26.9246,29.4653 6.0378,21.5116 -5.5236,50.2606 -28.8082,52.4452 -4.5831,0.4301 -8.8478,0.2407 -12.7573,-0.5748 -0.3643,-0.0644 1.5483,0.3407 -1.0985,-0.2109 -11.891,-2.4784 -21.4956,-10.5446 -25.3139,-22.1191 -5.6285,-17.0611 0.5153,-35.0654 15.745,-44.4784 3.3208,-2.0525 7.0016,-3.3327 10.2181,-4.0688 3.2167,-0.7362 5.9692,-0.9281 8.498,-0.8161 2.5285,0.1119 4.8327,0.5281 7.0253,1.008 2.1924,0.4802 4.273,1.0244 5.8731,1.4564 1.6005,0.432 2.7207,0.7521 4.3529,1.4562 1.395,0.6018 3.1635,1.4839 4.8391,2.5676 -3.3129,-4.1329 -7.2324,-7.6054 -11.4469,-9.9309 -24.1693,-13.3367 -55.1154,0.1579 -60.5889,29.8919 -8.1459,44.2519 34.8341,75.7792 74.0353,56.8539 z"
       style="fill:url(#grad2)"
       id="path45" />
    <path
       d="m 396.0575,556.0594 c -0.5286,-0.5751 -1.0936,-1.0006 -1.6917,-1.2739 -0.6009,-0.2761 -1.2637,-0.4127 -1.9885,-0.4127 -0.5853,0 -1.1551,0.1185 -1.7121,0.3557 -0.5545,0.2373 -1.0395,0.5675 -1.4468,0.9905 -0.4229,0.4382 -0.7401,0.9283 -0.9516,1.4697 -0.2115,0.5417 -0.3172,1.1401 -0.3172,1.7949 0,0.5134 0.0618,0.9879 0.1882,1.421 0.1265,0.4332 0.3147,0.8303 0.5675,1.194 0.4434,0.6293 0.9876,1.114 1.6348,1.4544 0.6474,0.3405 1.3461,0.5106 2.0968,0.5106 0.7063,0 1.3614,-0.1469 1.9649,-0.4383 0.6061,-0.2914 1.158,-0.7273 1.6557,-1.3076 v 1.7459 c -0.5493,0.3974 -1.1398,0.699 -1.7716,0.9028 -0.6319,0.2035 -1.2869,0.3042 -1.9627,0.3042 -0.5828,0 -1.1526,-0.0876 -1.707,-0.2606 -0.5545,-0.1726 -1.073,-0.428 -1.5577,-0.7605 -0.8045,-0.5573 -1.421,-1.2458 -1.8465,-2.0605 -0.4254,-0.8175 -0.6395,-1.7124 -0.6395,-2.6898 0,-0.8509 0.1418,-1.6274 0.4281,-2.3235 0.2837,-0.6988 0.7168,-1.3306 1.3022,-1.9007 0.5649,-0.5439 1.1889,-0.9516 1.8748,-1.2197 0.686,-0.2707 1.4341,-0.4048 2.2437,-0.4048 0.642,0 1.2611,0.0978 1.8592,0.2914 0.6009,0.1933 1.1914,0.4924 1.777,0.9 z m 2.2459,8.4172 v -11.0631 h 2.5997 c 0.7401,0 1.2841,0.0411 1.6271,0.1236 0.3455,0.0854 0.65,0.2271 0.913,0.4283 0.3274,0.2552 0.5803,0.6007 0.7605,1.0316 0.1832,0.4306 0.2736,0.9076 0.2736,1.4312 0,0.9051 -0.2529,1.5962 -0.7583,2.0656 -0.5079,0.472 -1.2481,0.7067 -2.2255,0.7067 h -0.2347 l 4.2242,5.2761 h -1.671 l -4.0385,-5.2761 h -0.1857 v 5.2761 z m 1.2844,-9.949 v 3.698 h 1.0032 c 1.029,0 1.7175,-0.1315 2.0656,-0.3971 0.3481,-0.2631 0.521,-0.7248 0.521,-1.385 0,-0.7092 -0.178,-1.2042 -0.5366,-1.4905 -0.3583,-0.2837 -1.0417,-0.4254 -2.05,-0.4254 z m 6.9962,9.949 v -11.4965 l 8.0923,8.8376 v -8.4042 h 1.2535 v 11.4962 l -8.0923,-8.7446 v 8.3115 z m 16.0739,-2.8006 h 1.3461 v 0.1289 c 0,0.5647 0.1831,1.0109 0.5519,1.3411 0.3688,0.33 0.8691,0.4949 1.5061,0.4949 0.7296,0 1.2946,-0.1856 1.6917,-0.5544 0.3997,-0.3714 0.5981,-0.8972 0.5981,-1.5781 0,-0.7143 -0.2035,-1.256 -0.6086,-1.6194 -0.4048,-0.3662 -1.0057,-0.5493 -1.8025,-0.5493 -0.1007,0 -0.1778,0 -0.2294,0.003 -0.0541,0.003 -0.1057,0.008 -0.1547,0.0128 v -1.0832 c 0.0385,0 0.0978,0.003 0.1751,0.008 0.08,0.005 0.1395,0.008 0.1781,0.008 0.7608,0 1.3334,-0.1675 1.7226,-0.4977 0.3869,-0.3325 0.5802,-0.8277 0.5802,-1.4828 0,-0.5777 -0.1752,-1.0367 -0.5286,-1.3771 -0.3532,-0.3404 -0.8303,-0.5105 -1.4338,-0.5105 -0.6446,0 -1.1475,0.1573 -1.506,0.4719 -0.3612,0.3144 -0.5545,0.7711 -0.5854,1.3692 l -1.2997,-0.008 c 0.0516,-0.949 0.3688,-1.6787 0.9567,-2.1869 0.5854,-0.508 1.408,-0.7605 2.4653,-0.7605 1.0162,0 1.8232,0.263 2.4165,0.7917 0.5956,0.5286 0.8921,1.2455 0.8921,2.1455 0,0.6548 -0.1726,1.2067 -0.5182,1.6606 -0.3455,0.4541 -0.828,0.7608 -1.4468,0.9206 0.6577,0.1109 1.1733,0.4077 1.5446,0.8898 0.3739,0.4797 0.5599,1.0934 0.5599,1.8386 0,1.0032 -0.3277,1.7898 -0.9854,2.3598 -0.6576,0.5724 -1.5678,0.8587 -2.7309,0.8587 -1.0238,0 -1.8385,-0.2606 -2.4446,-0.7841 -0.606,-0.5233 -0.9104,-1.2249 -0.9104,-2.1067 z m 12.4996,2.8006 v -9.8099 h -2.2592 l 0.7401,-1.1449 h 2.8032 v 10.9548 z m 9.4822,-10.1656 c -0.6061,0 -1.0831,0.165 -1.4363,0.4949 -0.3535,0.3277 -0.5287,0.7764 -0.5287,1.3462 0,0.5624 0.1701,1.0032 0.5131,1.3204 0.343,0.3172 0.8175,0.4745 1.421,0.4745 0.6242,0 1.1115,-0.1573 1.4595,-0.472 0.3481,-0.3146 0.5211,-0.7554 0.5211,-1.3229 0,-0.5698 -0.173,-1.0185 -0.5211,-1.3462 -0.348,-0.3299 -0.8251,-0.4949 -1.4286,-0.4949 z m -0.0153,9.392 c 0.7296,0 1.2997,-0.1961 1.7096,-0.5907 0.4076,-0.3918 0.6111,-0.9386 0.6111,-1.6373 0,-0.7118 -0.2061,-1.2662 -0.6162,-1.6713 -0.4099,-0.4023 -0.98,-0.6032 -1.7045,-0.6032 -0.7197,0 -1.287,0.2035 -1.7022,0.6086 -0.4125,0.4048 -0.6188,0.9592 -0.6188,1.6659 0,0.6987 0.2038,1.2455 0.6111,1.6373 0.4099,0.3946 0.98,0.5907 1.7099,0.5907 z m -1.4366,-5.0751 c -0.6239,-0.1987 -1.0933,-0.508 -1.4054,-0.9335 -0.3121,-0.4257 -0.4695,-0.9646 -0.4695,-1.6197 0,-0.8096 0.307,-1.4749 0.9233,-1.9933 0.6137,-0.5185 1.4159,-0.7761 2.4035,-0.7761 1.0134,0 1.8181,0.2602 2.4165,0.7837 0.5956,0.5236 0.8946,1.2223 0.8946,2.0914 0,0.5984 -0.1624,1.1115 -0.4872,1.5398 -0.3249,0.4281 -0.7867,0.7297 -1.3797,0.9077 0.7195,0.2063 1.2765,0.5621 1.6736,1.0726 0.3971,0.5083 0.5959,1.1194 0.5959,1.8363 0,1.0057 -0.3277,1.7974 -0.9854,2.3726 -0.6576,0.5749 -1.5678,0.8612 -2.7309,0.8612 -1.15,0 -2.0579,-0.2889 -2.7258,-0.8666 -0.6678,-0.5749 -1.0006,-1.3564 -1.0006,-2.3389 0,-0.735 0.1987,-1.3589 0.5933,-1.8722 0.3971,-0.5157 0.9592,-0.8692 1.6838,-1.065 z m 7.6076,0.3299 -0.2477,-0.0462 1.3127,-5.3898 h 4.8586 v 1.1296 h -3.9586 l -0.6962,2.8469 c 0.2526,-0.1316 0.5235,-0.2322 0.8096,-0.2991 0.2863,-0.0697 0.5882,-0.1032 0.9079,-0.1032 1.0831,0 1.9392,0.3223 2.5685,0.9698 0.6293,0.6471 0.9439,1.5264 0.9439,2.6328 0,1.2586 -0.3637,2.2538 -1.091,2.9812 -0.7297,0.7271 -1.7201,1.0908 -2.9733,1.0908 -0.7608,0 -1.4105,-0.1316 -1.9522,-0.3972 -0.5414,-0.263 -1.0007,-0.6704 -1.3796,-1.2248 l 0.9283,-1.078 c 0.2475,0.5028 0.5777,0.8872 0.993,1.1554 0.415,0.2656 0.8946,0.3996 1.4388,0.3996 0.7969,0 1.4338,-0.2554 1.9185,-0.7633 0.4825,-0.508 0.7248,-1.1863 0.7248,-2.0322 0,-0.8045 -0.2503,-1.4519 -0.7503,-1.9366 -0.5028,-0.4876 -1.171,-0.7299 -2.0063,-0.7299 -0.4386,0 -0.8538,0.0671 -1.2484,0.2012 -0.3972,0.1315 -0.7631,0.33 -1.101,0.593 z m 11.7414,5.5188 v -9.8099 h -2.2592 l 0.7401,-1.1449 h 2.8032 v 10.9548 z"
       style="fill:#be317f;fill-rule:evenodd"
       id="path47" />
  </g>
</svg>
