<?xml version="1.0" encoding="UTF-8"?>
<!DOCTYPE svg PUBLIC "-//W3C//DTD SVG 1.1//EN" "http://www.w3.org/Graphics/SVG/1.1/DTD/svg11.dtd">
<!-- Creator: CorelDRAW 2020 (64-Bit Evaluation Version) -->
<svg xmlns="http://www.w3.org/2000/svg" xml:space="preserve" width="300mm" height="300mm" version="1.1" style="shape-rendering:geometricPrecision; text-rendering:geometricPrecision; image-rendering:optimizeQuality; fill-rule:evenodd; clip-rule:evenodd"
viewBox="0 0 30000 30000"
 xmlns:xlink="http://www.w3.org/1999/xlink"
 xmlns:xodm="http://www.corel.com/coreldraw/odm/2003">
 <defs>
  <style type="text/css">
   <![CDATA[
    .str1 {stroke:#373435;stroke-width:20;stroke-miterlimit:22.9256}
    .str0 {stroke:#BE317F;stroke-width:7.62;stroke-miterlimit:22.9256}
    .fil4 {fill:none}
    .fil0 {fill:#FAFAFA}
    .fil2 {fill:#373435}
    .fil1 {fill:#BE317F;fill-rule:nonzero}
    .fil3 {fill:url(#id3)}
   ]]>
  </style>
    <clipPath id="id0">
     <path d="M15831.51 15769.21c1210.35,-584.32 1430.17,-2453.09 -55.67,-3316.93 -43.37,-25.21 -159.01,-77.76 -185.74,-99.37 20.29,-15.31 85.65,-36.68 121.92,-55.47 182.32,-94.44 318.47,-259.17 395.26,-453.12 113.08,-285.64 84.84,-707.93 -22.37,-993.03 -129.42,-344.1 -404.99,-593.77 -754.47,-708.23 -229.16,-75.06 -411.05,-69.15 -665.08,-69.15 -115.99,0 -1380.23,-7.64 -1460.1,3.01l-0.54 2354.33 -0.17 743.18c67.35,-92.77 425.73,-489.79 717.98,-635.48 81.6,-38.82 165.33,-70.23 247.97,-92.08 190.33,-50.33 303.64,-50.01 510.35,-62.68 -43.78,-41.78 -119.15,-84.27 -166.65,-123.99 -29.62,-24.76 -57.08,-53.49 -78.59,-75.01 -132.84,-132.87 -225.83,-280.84 -277.62,-478.33 -88.87,-338.9 32.38,-694.06 247.71,-896.26 217.38,-204.12 585.39,-311.18 895.76,-159.3 280.8,137.41 433.15,438.05 415.55,796.41 -158.39,69.56 -502.06,35.17 -684.43,-75.4 -177.58,-107.66 -312.55,-314.96 -315.69,-518.88 1.91,-1.47 4.96,-5.94 5.92,-4.14l47.59 -24.45c202.93,-67.99 434.73,58.23 517.35,60.5l-137.59 -110.28c-422.35,-248.44 -857.68,116.12 -902.48,692.26 -24.71,317.61 103.78,548.22 292.21,704.19 205.88,170.4 404.55,235.34 674.34,318.79 496.55,153.57 813.76,554.66 949.84,1039.47 213,758.88 -194.86,1773.08 -1016.29,1850.15 -161.68,15.17 -312.13,8.49 -450.05,-20.28 -12.85,-2.27 54.62,12.02 -38.75,-7.44 -419.49,-87.43 -758.32,-371.99 -893.02,-780.31 -198.56,-601.88 18.18,-1237.03 555.45,-1569.1 117.15,-72.41 247,-117.57 360.47,-143.54 113.48,-25.97 210.58,-32.74 299.79,-28.79 89.2,3.95 170.49,18.63 247.84,35.56 77.34,16.94 150.74,36.14 207.19,51.38 56.46,15.24 95.98,26.53 153.56,51.37 49.21,21.23 111.6,52.35 170.71,90.58 -116.87,-145.8 -255.14,-268.3 -403.82,-350.34 -852.64,-470.49 -1944.35,5.57 -2137.44,1054.52 -287.37,1561.11 1228.87,2673.32 2611.8,2005.68z"/>
    </clipPath>
      <mask id="id1">
  <linearGradient id="id2" gradientUnits="userSpaceOnUse" x1="13519.55" y1="18095.21" x2="16628.88" y2="13815.84">
   <stop offset="0" style="stop-opacity:1; stop-color:white"/>
   <stop offset="1" style="stop-opacity:0; stop-color:white"/>
  </linearGradient>
       <rect style="fill:url(#id2)" x="12290.76" y="9659.26" width="4834.51" height="5857.27"/>
      </mask>
  <linearGradient id="id3" gradientUnits="userSpaceOnUse" x1="16282.74" y1="10597.84" x2="13717.27" y2="15440.31">
   <stop offset="0" style="stop-opacity:1; stop-color:#831E62"/>
   <stop offset="1" style="stop-opacity:1; stop-color:#BE317F"/>
  </linearGradient>
 </defs>
 <g id="Camada_x0020_1">
  <metadata id="CorelCorpID_0Corel-Layer"/>
  <rect class="fil0" width="30000" height="30000"/>
  <g id="_2859774090960">
   <path class="fil1 str0" d="M10498.29 18595.77l0.14 8.36 15.46 0c28.15,0 51.13,22.57 51.55,50.71l0 414.47 -455.15 -486.08 -8.22 0c0,0 7.67,47.37 7.67,104.49l0 434.25c-0.56,28 -23.41,50.57 -51.55,50.57l-15.47 0 -0.13 8.36 172.19 0 -0.14 -8.36 -15.46 0c-28.01,0 -50.71,-22.15 -51.55,-50.01l0 -416.14 455.84 486.21 7.67 0c0,0 -7.67,-52.8 -7.67,-106.57l0 -431.89c0.84,-27.86 23.55,-50.01 51.55,-50.01l15.47 0 0.14 -8.36 -172.34 0zm940.26 0l0 8.36 13.66 0c23.68,0 43.05,16.86 44.16,40.26l0 329.76c-0.28,115.22 -74.67,192.12 -186.27,192.12 -106.57,0 -177.49,-81.22 -177.49,-202.98l0 -319.04c0.98,-23.4 20.35,-40.12 44.03,-40.12l13.65 0 0 -8.36 -169.83 0 0 8.36 13.66 0c24.1,0 43.74,17.41 44.16,41.38l0 330.04c0,130.26 92.79,217.05 231.82,217.05 135.14,0 225.28,-87.35 225.28,-218.45l0 -330.59c1.53,-22.99 20.62,-39.43 44.16,-39.43l13.66 0 0 -8.36 -154.65 0zm584.45 -0.84c-36.22,-0.14 -85.12,-8.63 -100.72,-15.18l0 105.04 8.36 -0.14 0 -14.9c0,-26.75 21.17,-48.62 47.78,-49.74l158.54 0 0 501.4c-1.25,28.42 -24.79,51.13 -53.49,51.13l-10.59 0 -0.14 8.36 182.92 0 -0.14 -8.36 -10.58 0c-28.98,0 -52.53,-22.99 -53.5,-51.82l0 -500.71 158.4 0c26.61,1.12 47.65,22.99 47.65,49.74l0 14.9 8.5 0.14 0 -105.04c-15.75,6.55 -64.51,15.04 -100.73,15.18l-282.26 0zm720.01 0.84l0.14 8.36 10.59 0c29.26,0 52.94,23.4 53.5,52.52l0 463.79c-0.7,28.84 -24.38,52.1 -53.5,52.1l-10.59 0 -0.14 8.36 182.65 0 -0.14 -8.36 -10.59 0c-29.26,0 -52.94,-23.4 -53.5,-52.52l0 -498.2c10.87,0.42 61.44,-1.67 104.07,0.7 62.14,3.34 101.56,51.82 103.65,127.33 0.56,18.39 -1.67,38.32 -5.29,50.02 -23.68,75.37 -87.07,85.68 -130.54,86.79 -25.08,0.7 -44.16,0.28 -44.16,0.28l0 7.8c30.65,0 55.03,28.98 76.76,56.43 6.55,8.08 100.73,145.03 110.2,156.45 26.19,31.35 67.99,73.28 145.86,73.28l45.84 0 0 -8.36c-49.18,-0.42 -80.11,-26.47 -113.68,-63.25 -32.32,-35.39 -104.49,-138.2 -104.49,-138.2 -16.16,-22.85 -41.8,-50.57 -59.77,-58.79 80.39,0 141.97,-78.58 141.97,-159.38 0,-97.52 -62,-157.15 -163.42,-157.15l-225.42 0zm994.33 576.77l-10.59 0c-29.26,0 -53.08,-23.4 -53.5,-52.52l0 -463.93c0.7,-28.83 24.38,-52.1 53.5,-52.1l10.59 0 0.14 -8.36 -182.93 0 0.14 8.36 10.59 0c29.12,0 52.8,23.27 53.5,52.24l0 463.79c-0.56,29.12 -24.24,52.52 -53.5,52.52l-10.59 0 -0.14 8.36 182.93 0 -0.14 -8.36zm890.39 -235.58c-18.95,171.22 -119.39,230.29 -238.09,230.57 -140.57,-3.35 -235.86,-112.85 -235.86,-280.87 0,-166.34 93.62,-277.52 240.6,-277.52 100.44,0 182.36,51.83 207.72,149.49l6.96 0 -16.85 -118.14c-48.9,-32.18 -115.78,-56.42 -197.69,-56.42 -183.9,0 -303.44,122.04 -303.44,303.43 0,184.73 123.72,304.27 298.56,305.1 116.05,0 190.86,-52.52 234.89,-124.41l10.17 -131.23 -6.97 0zm552.13 235.58l-10.59 0c-29.26,0 -53.08,-23.4 -53.5,-52.52l0 -463.93c0.7,-28.83 24.38,-52.1 53.5,-52.1l10.59 0 0.14 -8.36 -182.93 0 0.14 8.36 10.59 0c29.12,0 52.8,23.27 53.5,52.24l0 463.79c-0.56,29.12 -24.24,52.52 -53.5,52.52l-10.59 0 -0.14 8.36 182.93 0 -0.14 -8.36zm662.61 -588.47c-177.77,0 -300.51,121.76 -300.51,304.27 0,182.5 122.74,304.26 300.51,304.26 177.77,0 300.37,-121.76 300.37,-304.26 0,-182.51 -122.6,-304.27 -300.37,-304.27zm0 583.46c-141.83,0 -236.42,-111.6 -236.42,-279.19 0,-167.6 94.59,-279.2 236.42,-279.2 141.82,0 236.28,111.6 236.28,279.2 0,167.59 -94.46,279.19 -236.28,279.19zm1088.78 -571.76l0.14 8.36 15.46 0c28.15,0 51.13,22.57 51.55,50.71l0 414.47 -455.15 -486.08 -8.22 0c0,0 7.67,47.37 7.67,104.49l0 434.25c-0.56,28 -23.41,50.57 -51.55,50.57l-15.47 0 -0.13 8.36 172.19 0 -0.14 -8.36 -15.46 0c-28.01,0 -50.71,-22.15 -51.55,-50.01l0 -416.14 455.84 486.21 7.67 0c0,0 -7.67,-52.8 -7.67,-106.57l0 -431.89c0.84,-27.86 23.55,-50.01 51.55,-50.01l15.47 0 0.14 -8.36 -172.34 0zm704.96 576.77l-10.59 0c-29.26,0 -53.08,-23.4 -53.5,-52.52l0 -463.93c0.7,-28.83 24.38,-52.1 53.5,-52.1l10.59 0 0.14 -8.36 -182.93 0 0.14 8.36 10.59 0c29.12,0 52.8,23.27 53.5,52.24l0 463.79c-0.56,29.12 -24.24,52.52 -53.5,52.52l-10.59 0 -0.14 8.36 182.93 0 -0.14 -8.36zm463.52 -390.22c-26.33,-24.39 -33.72,-55.31 -33.72,-77.05 0,-50.99 41.24,-96.13 102.82,-96.13 52.1,0 94.32,32.6 94.04,86.1l8.08 0 0 -92.64 0 -9.89 -33.16 0c-22.15,-4.88 -49.74,-8.64 -71.61,-8.64 -95.29,0 -146.98,70.77 -146.98,141.26 0,32.33 11.57,72.73 45.28,103.66l160.21 148.65c20.9,19.36 32.74,45.27 32.74,77.88 0,66.87 -50.99,108.66 -112.01,112.01 -74.39,4.18 -128.86,-50.99 -120.51,-137.09l-7.38 0c-12.68,37.47 -15.88,90.69 -9.61,116.47 32.88,33.99 100.58,45.69 141.54,45.69 96.13,0 156.46,-63.8 156.46,-156.31 0,-33.72 -8.5,-71.05 -41.94,-101.84l-164.25 -152.13zm641.98 -187.39c-36.22,-0.14 -85.12,-8.63 -100.72,-15.18l0 105.04 8.36 -0.14 0 -14.9c0,-26.75 21.17,-48.62 47.78,-49.74l158.54 0 0 501.4c-1.25,28.42 -24.79,51.13 -53.49,51.13l-10.59 0 -0.14 8.36 182.92 0 -0.14 -8.36 -10.58 0c-28.98,0 -52.53,-22.99 -53.5,-51.82l0 -500.71 158.4 0c26.61,1.12 47.65,22.99 47.65,49.74l0 14.9 8.5 0.14 0 -105.04c-15.75,6.55 -64.51,15.04 -100.73,15.18l-282.26 0zm911.71 -10.86l-7.53 0c0,18.39 -30.92,86.1 -30.92,86.1l-189.48 449.85c-16.99,37.2 -47.92,52.52 -73.28,52.52l-7.52 0 0 8.36 168.3 0 0 -8.22 -7.39 0c-21.45,0 -43.74,-18.81 -31.9,-51.96l55.86 -142.94 225.28 0 53.36 142.38c12.26,33.43 -10.17,52.52 -31.77,52.52l-7.24 0 0 8.22 188.22 0 0 -8.36 -7.11 0c-25.49,0 -56.42,-15.32 -73.42,-52.52l-223.46 -535.95zm-113.96 368.63l105.18 -268.32 100.73 268.32 -205.91 0z"/>
   <g>
    <path class="fil2" d="M22106.26 17462.34c0,-126.45 3.51,-213.07 62,-327.27 17.19,-33.56 36.98,-64.25 58.96,-93.39 37.85,-50.19 52.19,-61.71 93.94,-100.75 205.53,-192.21 534.53,-211.49 774.12,-52.31 17.33,11.52 28.15,20.64 43.46,32.73 49.56,39.15 113.09,108.11 145.86,163.09 30.89,51.82 29.58,46.88 52.5,104.07 8.53,21.28 12.77,37.43 19.62,60.78 40.3,137.34 20.07,326.75 -42.44,451.39 -82.98,165.48 -244.55,303 -429.32,340.98 -22.16,4.55 -40.08,7.71 -64.89,11.3 -13.97,2.03 -22.21,1.48 -36.53,1.58 -45.99,0.31 1.68,6.41 -72.08,0.34 -12.25,-1.01 -25.37,0.49 -37.67,-0.44 -18.53,-1.41 -45.98,-6.01 -66.16,-10.04 -50.23,-10.04 -129.24,-37.36 -170.37,-62.44 -113.58,-69.25 -205.48,-154.35 -266.08,-275.64 -19.37,-38.78 -30.43,-65.51 -43.26,-109.08 -10.37,-35.19 -21.66,-90.91 -21.66,-134.9zm1380.19 -47.12l0 34.75 0 4.05 0 4.09c0,149.49 -69.24,314.27 -157.62,422.11 -48.84,59.59 -54.59,62.2 -105.88,109.96 -39.87,37.13 -114.54,81.83 -161.27,105.38 -117.42,59.13 -218.49,69.09 -354.23,69.09 -151.19,0 -285.13,-56.29 -397.94,-135.41 -67.77,-47.53 -85.11,-72.96 -136.61,-125.79 -38.44,-39.42 -81.35,-111.16 -106.15,-160.46 -65.16,-129.51 -70.56,-220.92 -70.56,-365.26 0,-321.04 273.14,-625.07 584.52,-689.35 109.06,-22.51 219.13,-22.68 328.19,1.49 52.53,11.64 92.21,27.2 136.66,45.36 73.29,29.94 162.28,95.25 215.45,148.55 32.26,32.35 57.59,60.24 85.16,96.82 46.94,62.27 69.61,109.4 96.71,178.36 8.57,21.8 15.7,45.74 21.58,67.28 19.52,71.55 21.79,123.42 21.99,188.98z"/>
    <path class="fil2" d="M10133.36 17420.03c0,-199.93 84.36,-348.86 185.23,-449.52 279.06,-278.5 724.28,-250.28 970.58,77.21 81.33,108.15 118.54,230.23 118.54,380.78 0,262.9 -166.21,480.94 -376.85,575.33 -35.27,15.81 -75.27,29.96 -118.1,38.53l-143.98 16.44c-34.18,-1.81 -107.75,-8.9 -140.17,-16.75 -121.54,-29.44 -220.7,-83.08 -307.98,-170.31l-71.3 -85.29c-72.74,-110.15 -115.97,-212.04 -115.97,-366.42zm-110.07 -4.23c0,299.63 150.54,503.21 359.81,643.13 87.82,58.72 236.61,105.72 355.68,105.72 137.17,0 239.37,-11.65 354.27,-69.05 104.27,-52.09 226.55,-151.07 291.83,-249.92 12.28,-18.6 25.16,-35.81 35.39,-53.47 115.85,-199.96 131.94,-477.67 31.24,-686.72 -22.54,-46.8 -70.96,-126.69 -108.32,-166.76 -8.88,-9.52 -14.12,-12.96 -22.6,-23.94 -27.29,-35.31 -86.06,-81.31 -120.93,-107.62 -200.57,-151.33 -502.25,-175.34 -731.79,-72.48 -92.12,41.29 -205.89,126.04 -267.41,202.4l-40.93 52.17c-13.39,19.79 -23.64,35.36 -36.49,56.61 -59.65,98.67 -99.75,233.76 -99.75,369.93z"/>
    <path class="fil2" d="M20844.62 16705.03l0 1430c0,22.36 47.94,12.7 110.08,12.7l0 -1239.62c14.99,17.24 12.3,18.13 22.95,36.29l68.74 117.47c14.85,27.24 28.81,52.17 44.56,78.16 134.48,221.99 270.37,476.12 404.85,699.66 31.29,52.02 59.86,103.3 89.94,155.51l68.33 117.87c25.86,43.27 -0.28,34.66 121.97,34.66l0 -1455.39 -105.85 0 0 1231.16c-11.49,-8.42 -120.31,-203.45 -133.67,-226.04l-87.93 -153.28c-14.86,-27.26 -30.75,-51.05 -45.12,-77.61 -14.23,-26.29 -30.03,-50.01 -45.12,-77.6 -68.33,-125.01 -155.9,-263.4 -223.06,-386.33 -22.28,-40.79 -171.03,-287.46 -176.36,-310.3 -39.17,0 -114.31,-8.52 -114.31,12.69z"/>
    <path class="fil2" d="M16098.64 18147.73l105.85 0 0 -1243.85c3.85,4.43 0.9,0.7 5.39,7.31l310.68 535.68c83.01,152.27 184.93,315.37 271.11,469.47l113.18 195.74c26.44,44.84 0.79,35.65 120.98,35.65l0 -1455.39 -105.85 0 0 1231.16 -134.02 -229.92c-15.24,-27.89 -29.62,-49.96 -45.1,-77.63 -70.27,-125.63 -155.6,-262.4 -221.63,-383.52 -81.22,-149 -201.73,-352.83 -291.14,-504.44 -26.76,-45.38 -0.01,-35.65 -129.45,-35.65l0 1455.39z"/>
    <path class="fil2" d="M13490.69 18041.96l-169.35 0 0 -791.16c189.78,0 344.5,-11.73 470.6,160.11 99.82,136.01 100.74,319.49 7.02,456.8 -14.96,21.92 -27.57,33.48 -43.3,54.04l-48.97 44.14c-59.01,44.97 -131.76,76.07 -216,76.07zm21.16 -905.39l-190.51 0 0 -334.23 177.81 0c82.65,0 150.56,67 159.18,162.52 8.54,94.69 -78.31,171.71 -146.48,171.71zm-296.35 1011.16l292.12 0c136.81,0 240.73,-60.64 310.12,-130.1 82.97,-83.05 133.64,-160.69 155.05,-285.06 24.75,-143.73 -12.1,-264.06 -66.91,-355.14 -27.87,-46.31 -63.42,-81.43 -100.82,-119.24 -24.12,-24.38 -96.71,-80.23 -136.56,-83.54 6.24,-23.34 158.21,-144.86 65.02,-327.28 -20.18,-39.49 -43.41,-66.13 -76.38,-92.91 -7.6,-6.18 -10.85,-9.53 -19.01,-14.85 -14.31,-9.32 -26.53,-16.85 -43.93,-23.79 -35.06,-14.01 -68.82,-23.48 -116.21,-23.48l-262.49 0 0 1455.39z"/>
    <path class="fil2" d="M15488.99 17542.73l-254.02 0 0 -740.39 237.09 0c96.51,0 188.48,42.25 253.04,106.75 9.63,9.63 11.06,11.53 19.72,22.6 60.78,77.68 81.93,115.63 88.04,233.11 2.81,53.99 -7.66,105.61 -25.67,150.13 -49.3,121.86 -182.49,227.8 -318.2,227.8zm-364.1 -837.7l0 1442.7 110.08 0 0 -495 237.09 0c11.68,0 18.4,16.72 24.57,26.21 99.17,152.39 202.81,321.62 301.42,468.79l131.25 0c-95.84,-143.02 -193.48,-302.92 -289.59,-446.77 -14.96,-22.39 -28.4,-42.04 -40.64,-65.16 49.79,-23.87 42.89,-5.06 131.26,-63.44 33.18,-21.92 79.14,-63.02 104.06,-94.86 80.1,-102.37 107.61,-183.36 107.61,-319.77 0,-137.06 -66.99,-251.57 -136.53,-320.49 -37.06,-36.73 -84.13,-73.28 -131.56,-96.99 -48.25,-24.12 -126.48,-47.91 -180.68,-47.91l-355.63 0c-9.76,0 -12.71,2.94 -12.71,12.69z"/>
    <path class="fil2" d="M18782.81 17542.73l-254.02 0 0 -740.39 237.09 0c93.58,0 162.45,32.24 228.02,85.21 107.42,86.77 151.52,216.3 128.3,355.48 -8.08,48.44 -25.51,91.39 -51.43,130.54 -33.99,51.33 -89.1,103.71 -143.97,131.13 -37.11,18.54 -88.51,38.03 -143.99,38.03zm-364.1 -837.7l0 1442.7 110.08 0 0 -495 237.09 0c12.78,0 20.07,16.62 25.23,25.55 6.92,11.96 11.51,19 19.66,31.12 14.5,21.55 26.18,41.21 39.82,61.74l241.28 376.59 131.24 0 -330.22 -511.93c37.1,-17.79 79.63,-23.88 131.92,-62.78 20.81,-15.49 34.9,-25.47 53.31,-44.04 16.49,-16.62 33.4,-31.53 48.65,-48.68 60.58,-68.11 109.05,-182.58 109.05,-280.27 0,-116.92 -15.52,-207.93 -84.01,-301.05 -47.02,-63.91 -108.91,-120.42 -181.21,-157.38 -36.68,-18.74 -123.08,-49.26 -175.09,-49.26l-364.1 0c-9.75,0 -12.7,2.94 -12.7,12.69z"/>
    <path class="fil2" d="M9439.04 17542.73l-258.26 0 0 -740.39 241.32 0c188.59,0 359.87,168.65 359.87,351.15 0,70.85 -2.97,113.83 -32.41,174.93 -29.08,60.38 -62.86,101.82 -115.72,142.43 -51.87,39.86 -122.01,71.88 -194.8,71.88zm-364.1 605l105.84 0 0 -495 241.32 0c12.03,0 36.49,45.68 43.69,57.88l79.29 123.84c12.52,20.97 25.71,38.96 39.69,61.88l119.29 185.4c9.19,13.7 36.36,53.1 39.8,66l131.25 0c-3.37,-12.6 -30.06,-51.43 -38.1,-63.47 -29.4,-43.93 -283.64,-432.52 -287.9,-448.46 17.39,-8.33 39.69,-13.35 69.19,-28.17 109.62,-55.06 197.83,-145.07 242.34,-261.29 54.06,-141.16 36.23,-317.21 -48.39,-438.88 -16.75,-24.08 -33.79,-43.01 -52.69,-65.8 -10.49,-12.65 -17.04,-16.37 -29.02,-26.01 -79.73,-64.12 -173.56,-123.31 -287.27,-123.31l-368.33 0 0 1455.39z"/>
    <path class="fil2" d="M19523.71 18037.73l-25.4 0 0 -1231.16c108.87,0 211.6,11.67 300.52,50.83 40.33,17.76 63.21,29.39 99.15,53.23 83.73,55.53 164.6,157.14 205.86,251.21 72.5,165.28 71.5,348.62 2.36,514.52 -59.07,141.76 -173.33,251.97 -314.53,311.84 -64.9,27.52 -176.98,49.53 -267.96,49.53zm-131.25 110c262.62,0 468,-12.89 663.64,-208.37 120.07,-119.98 227.87,-314.19 208.74,-557.64 -6.47,-82.37 -4.46,-86.07 -24.73,-165.67 -11.23,-44.11 -22.09,-67.35 -38.94,-104.94 -25.87,-57.74 -54.45,-102.03 -93.76,-151.68 -30.51,-38.55 -57.48,-67.21 -95.52,-99.17 -36.59,-30.74 -68.96,-54 -112.76,-77.69 -21.15,-11.44 -44.44,-20.6 -67.53,-29.83 -23.13,-9.24 -47.53,-17.71 -72.54,-24.82 -106.69,-30.32 -234.13,-35.58 -366.6,-35.58l0 1455.39z"/>
    <path class="fil2" d="M14168.08 18147.73l740.9 0 0 -105.77 -635.06 0 0 -566.93 635.06 0c0,-62.09 9.66,-110 -12.71,-110l-622.35 0 0 -562.69 635.06 0 0 -110 -740.9 0 0 1455.39z"/>
    <path class="fil2" d="M8380.61 16950.42c3.18,13.65 5.92,18.61 10.91,31.41l87 238.82c7.87,21.89 14.9,41.58 23.24,65.63 8.14,23.46 15.44,44.9 24.58,68.51l49.02 137.17 -393.73 0c4.69,-9.78 6.86,-19.12 11.07,-31.25l187.91 -510.29zm-550.38 1197.31l114.31 0 47.18 -134.78c10.91,-29.17 145.87,-390.6 147.57,-410.99l478.41 0c3.47,14.87 7.63,22.6 12.08,34.46l37.16 102.48c16.14,47.84 33.35,89.12 49.76,136.43l99.98 272.4 110.08 0c-1.5,-18.02 -9.05,-32.58 -15.15,-48.33l-84.01 -233.35c-34.66,-89.58 -70.01,-199.89 -104.06,-285.25 -33.88,-84.93 -68.63,-195.77 -102.85,-282.22 -57.49,-145.27 -114.49,-330.07 -172.34,-475.09l-50.8 -139.61c-11.48,-28.8 -7.51,-36.54 -21.17,-46.54l-66.5 187.39c-57.53,145.37 -114.29,325.98 -171.83,471.37 -13.08,33.04 -22.18,62.78 -35.08,96.1 -62.39,161.3 -145.74,398.38 -205.54,564.61l-50.8 139.61c-4.1,11.39 -15.39,39.15 -16.4,51.31z"/>
    <path class="fil2" d="M17720.15 16954.65l8.47 0c5.66,24.29 14.68,42.69 22.8,66.06l146.01 404.09c7.26,20.18 16.88,50.05 25.94,67.16l-393.73 0c2.4,-28.87 187.85,-505.31 190.51,-537.31zm-546.15 1193.08l114.31 0c15.41,-32.09 79.83,-224.39 100.37,-276.24l74.85 -204.44c4.74,-13.68 7.47,-21.54 12.27,-34.28 5.3,-14.1 5.37,-30.81 19.97,-30.81l457.24 0c16.43,0 20.4,30.84 32.08,61.01l175.37 484.76 114.31 0c-2.86,-12.24 -11.97,-34.74 -16.4,-47.08l-188.38 -518.29c-21.93,-64.98 -46.08,-123.9 -68.79,-189.34l-101.6 -279.23c-11.57,-33.33 -23.56,-64.51 -34.97,-96.21 -22.87,-63.6 -47.24,-124.75 -68.77,-189.36 -10.11,-30.36 -23.33,-61.26 -33.89,-93.05 -7.06,-21.23 -31.85,-79.8 -33.35,-97.83 -14.4,10.54 -66.63,167.96 -72.5,185.63 -20.82,62.69 -46.83,124.33 -68.77,189.35 -21.93,64.98 -46.08,123.9 -68.79,189.34l-344.56 946.07z"/>
    <path class="fil2" d="M6513.55 17381.96c0,179.49 7.65,208.29 68.3,359.05l30.8 58.07c10.81,17.95 23.72,36.9 35.72,53.15 51.07,69.18 108.59,126.66 177.81,177.7 30.06,22.15 77.22,52.12 110.79,66.98 89.69,39.69 184.74,62.61 280.4,67.74l82.57 0c89.85,-4.86 179.05,-25.71 263.66,-63.37 55.57,-24.74 109.95,-58.23 157.18,-96.77 14.16,-11.55 36.58,-28.97 45.94,-42.94 -10.27,-15.33 -23.75,-21.48 -37.1,-34.84 -19.16,-19.16 -29.8,-23.2 -39.1,-37.08 -22.84,15.29 -40.13,33.42 -64.34,49.93 -77.23,52.67 -135.92,84.41 -238.04,104.82 -56.05,11.2 -147.43,17.39 -208.21,8.56 -142.26,-20.65 -217.33,-55.96 -323.49,-137.89 -34.37,-26.53 -86.13,-82.48 -113.7,-119.06 -58.94,-78.2 -119.11,-206.28 -119.11,-342.13 0,-123.06 6.21,-202.85 60.66,-311.68 45.63,-91.2 128.5,-190.13 214.51,-246.8 110.05,-72.51 209.51,-109.98 359.88,-109.98 91.79,0 182.47,20.31 247.02,49.3 76.74,34.48 100.8,51.68 161.76,100.66 11.86,9.52 8.9,11.26 23.06,15.04 9.65,-6.46 11.42,-9.63 20.06,-18.03 9.44,-9.19 11.59,-9.19 21.03,-17.07 13.17,-11 30.49,-23.74 35.11,-41.06 -14.52,-3.87 -13.99,-7.73 -24.32,-18 -114.67,-113.97 -322.74,-180.84 -483.72,-180.84 -203.16,0 -380.03,73.03 -515.45,208.36 -42.19,42.16 -49.17,45.97 -86.35,95.64 -79.76,106.57 -143.33,255 -143.33,402.54z"/>
    <path class="fil2" d="M11733.7 16705.03l0 1442.7 664.69 0 0 -105.77 -554.61 0 0 -1349.62 -97.38 0c-9.75,0 -12.7,2.94 -12.7,12.69z"/>
    <path class="fil2" d="M20480.52 18147.73l110.08 0 0 -1442.7c0,-9.75 -2.95,-12.69 -12.7,-12.69l-97.38 0 0 1455.39z"/>
   </g>
   <path class="fil3" d="M15831.51 15769.21c1210.35,-584.32 1430.17,-2453.09 -55.67,-3316.93 -43.37,-25.21 -159.01,-77.76 -185.74,-99.37 20.29,-15.31 85.65,-36.68 121.92,-55.47 182.32,-94.44 318.47,-259.17 395.26,-453.12 113.08,-285.64 84.84,-707.93 -22.37,-993.03 -129.42,-344.1 -404.99,-593.77 -754.47,-708.23 -229.16,-75.06 -411.05,-69.15 -665.08,-69.15 -115.99,0 -1380.23,-7.64 -1460.1,3.01l-0.54 2354.33 -0.17 743.18c67.35,-92.77 425.73,-489.79 717.98,-635.48 81.6,-38.82 165.33,-70.23 247.97,-92.08 190.33,-50.33 303.64,-50.01 510.35,-62.68 -43.78,-41.78 -119.15,-84.27 -166.65,-123.99 -29.62,-24.76 -57.08,-53.49 -78.59,-75.01 -132.84,-132.87 -225.83,-280.84 -277.62,-478.33 -88.87,-338.9 32.38,-694.06 247.71,-896.26 217.38,-204.12 585.39,-311.18 895.76,-159.3 280.8,137.41 433.15,438.05 415.55,796.41 -158.39,69.56 -502.06,35.17 -684.43,-75.4 -177.58,-107.66 -312.55,-314.96 -315.69,-518.88 1.91,-1.47 4.96,-5.94 5.92,-4.14l47.59 -24.45c202.93,-67.99 434.73,58.23 517.35,60.5l-137.59 -110.28c-422.35,-248.44 -857.68,116.12 -902.48,692.26 -24.71,317.61 103.78,548.22 292.21,704.19 205.88,170.4 404.55,235.34 674.34,318.79 496.55,153.57 813.76,554.66 949.84,1039.47 213,758.88 -194.86,1773.08 -1016.29,1850.15 -161.68,15.17 -312.13,8.49 -450.05,-20.28 -12.85,-2.27 54.62,12.02 -38.75,-7.44 -419.49,-87.43 -758.32,-371.99 -893.02,-780.31 -198.56,-601.88 18.18,-1237.03 555.45,-1569.1 117.15,-72.41 247,-117.57 360.47,-143.54 113.48,-25.97 210.58,-32.74 299.79,-28.79 89.2,3.95 170.49,18.63 247.84,35.56 77.34,16.94 150.74,36.14 207.19,51.38 56.46,15.24 95.98,26.53 153.56,51.37 49.21,21.23 111.6,52.35 170.71,90.58 -116.87,-145.8 -255.14,-268.3 -403.82,-350.34 -852.64,-470.49 -1944.35,5.57 -2137.44,1054.52 -287.37,1561.11 1228.87,2673.32 2611.8,2005.68z"/>
   <g style="clip-path:url(#id0)">
    <g>
     <path id="1" class="fil2 str1" style="mask:url(#id1)" d="M14842.93 15059.78c-280.17,84.27 -452.09,78.92 -531.57,86.32 -79.48,7.4 -66.53,27.54 36.77,104.58 521.73,389.13 1346.33,285.89 1891.38,12.47 172.19,-86.38 331.67,-221.59 443.45,-343.54 111.78,-121.95 175.87,-230.62 228.24,-356.09 52.37,-125.47 93.02,-267.74 133.67,-396.46 40.64,-128.72 81.29,-243.89 67.74,-381.65 -13.55,-137.75 -81.29,-298.09 -217.92,-504.72 -136.62,-206.63 -342.12,-459.55 -434.71,-978.95 -92.59,-519.39 -72.27,-1305.27 -348.9,-1802.08 -276.64,-496.82 -850.23,-704.58 -1435.12,-789.26 -584.89,-84.69 -1181.06,-46.3 -1606.74,187.43 -425.69,233.73 -680.87,662.8 -748.61,1212.69 -67.75,549.88 51.94,1220.58 149.04,1669.97 97.1,449.39 171.63,677.48 307.12,707.96 135.5,30.49 331.97,-136.62 495.69,-296.96 163.72,-160.33 294.7,-313.89 481.13,-444.52 186.42,-130.62 428.29,-238.3 684.6,-265.4 256.31,-27.1 527.06,26.39 745.99,112.97 218.94,86.59 386.05,206.28 503.48,306.77 117.43,100.49 185.17,181.79 239.37,260.83 54.2,79.03 94.85,155.82 130.98,270.99 36.13,115.17 67.75,268.73 88.78,392.51 21.03,123.78 31.48,217.78 -11.43,346.5 -42.91,128.72 -139.17,292.16 -381.51,460.82 -242.33,168.67 -630.76,342.55 -910.92,426.82z"/>
    </g>
   </g>
   <path class="fil4" d="M15831.51 15769.21c1210.35,-584.32 1430.17,-2453.09 -55.67,-3316.93 -43.37,-25.21 -159.01,-77.76 -185.74,-99.37 20.29,-15.31 85.65,-36.68 121.92,-55.47 182.32,-94.44 318.47,-259.17 395.26,-453.12 113.08,-285.64 84.84,-707.93 -22.37,-993.03 -129.42,-344.1 -404.99,-593.77 -754.47,-708.23 -229.16,-75.06 -411.05,-69.15 -665.08,-69.15 -115.99,0 -1380.23,-7.64 -1460.1,3.01l-0.54 2354.33 -0.17 743.18c67.35,-92.77 425.73,-489.79 717.98,-635.48 81.6,-38.82 165.33,-70.23 247.97,-92.08 190.33,-50.33 303.64,-50.01 510.35,-62.68 -43.78,-41.78 -119.15,-84.27 -166.65,-123.99 -29.62,-24.76 -57.08,-53.49 -78.59,-75.01 -132.84,-132.87 -225.83,-280.84 -277.62,-478.33 -88.87,-338.9 32.38,-694.06 247.71,-896.26 217.38,-204.12 585.39,-311.18 895.76,-159.3 280.8,137.41 433.15,438.05 415.55,796.41 -158.39,69.56 -502.06,35.17 -684.43,-75.4 -177.58,-107.66 -312.55,-314.96 -315.69,-518.88 1.91,-1.47 4.96,-5.94 5.92,-4.14l47.59 -24.45c202.93,-67.99 434.73,58.23 517.35,60.5l-137.59 -110.28c-422.35,-248.44 -857.68,116.12 -902.48,692.26 -24.71,317.61 103.78,548.22 292.21,704.19 205.88,170.4 404.55,235.34 674.34,318.79 496.55,153.57 813.76,554.66 949.84,1039.47 213,758.88 -194.86,1773.08 -1016.29,1850.15 -161.68,15.17 -312.13,8.49 -450.05,-20.28 -12.85,-2.27 54.62,12.02 -38.75,-7.44 -419.49,-87.43 -758.32,-371.99 -893.02,-780.31 -198.56,-601.88 18.18,-1237.03 555.45,-1569.1 117.15,-72.41 247,-117.57 360.47,-143.54 113.48,-25.97 210.58,-32.74 299.79,-28.79 89.2,3.95 170.49,18.63 247.84,35.56 77.34,16.94 150.74,36.14 207.19,51.38 56.46,15.24 95.98,26.53 153.56,51.37 49.21,21.23 111.6,52.35 170.71,90.58 -116.87,-145.8 -255.14,-268.3 -403.82,-350.34 -852.64,-470.49 -1944.35,5.57 -2137.44,1054.52 -287.37,1561.11 1228.87,2673.32 2611.8,2005.68z"/>
   <path class="fil1" d="M13972.03 19616.54c-18.65,-20.29 -38.58,-35.3 -59.68,-44.94 -21.2,-9.74 -44.58,-14.56 -70.15,-14.56 -20.65,0 -40.75,4.18 -60.4,12.55 -19.56,8.37 -36.67,20.02 -51.04,34.94 -14.92,15.46 -26.11,32.75 -33.57,51.85 -7.46,19.11 -11.19,40.22 -11.19,63.32 0,18.11 2.18,34.85 6.64,50.13 4.46,15.28 11.1,29.29 20.02,42.12 15.64,22.2 34.84,39.3 57.67,51.31 22.84,12.01 47.49,18.01 73.97,18.01 24.92,0 48.03,-5.18 69.32,-15.46 21.38,-10.28 40.85,-25.66 58.41,-46.13l0 61.59c-19.38,14.02 -40.21,24.66 -62.5,31.85 -22.29,7.18 -45.4,10.73 -69.24,10.73 -20.56,0 -40.66,-3.09 -60.22,-9.19 -19.56,-6.09 -37.85,-15.1 -54.95,-26.83 -28.38,-19.66 -50.13,-43.95 -65.14,-72.69 -15.01,-28.84 -22.56,-60.41 -22.56,-94.89 0,-30.02 5,-57.41 15.1,-81.97 10.01,-24.65 25.29,-46.94 45.94,-67.05 19.93,-19.19 41.94,-33.57 66.14,-43.03 24.2,-9.55 50.59,-14.28 79.15,-14.28 22.65,0 44.49,3.45 65.59,10.28 21.2,6.82 42.03,17.37 62.69,31.75l0 60.59zm79.23 296.94l0 -390.28 91.71 0c26.11,0 45.3,1.45 57.4,4.36 12.19,3.01 22.93,8.01 32.21,15.11 11.55,9 20.47,21.19 26.83,36.39 6.46,15.19 9.65,32.02 9.65,50.49 0,31.93 -8.92,56.31 -26.75,72.87 -17.92,16.65 -44.03,24.93 -78.51,24.93l-8.28 0 149.02 186.13 -58.95 0 -142.47 -186.13 -6.55 0 0 186.13 -45.31 0zm45.31 -350.98l0 130.46 35.39 0c36.3,0 60.59,-4.64 72.87,-14.01 12.28,-9.28 18.38,-25.57 18.38,-48.86 0,-25.02 -6.28,-42.48 -18.93,-52.58 -12.64,-10.01 -36.75,-15.01 -72.32,-15.01l-35.39 0zm246.81 350.98l0 -405.57 285.48 311.77 0 -296.48 44.22 0 0 405.56 -285.48 -308.49 0 293.21 -44.22 0zm567.05 -98.8l47.49 0 0 4.55c0,19.92 6.46,35.66 19.47,47.31 13.01,11.64 30.66,17.46 53.13,17.46 25.74,0 45.67,-6.55 59.68,-19.56 14.1,-13.1 21.1,-31.65 21.1,-55.67 0,-25.2 -7.18,-44.31 -21.47,-57.13 -14.28,-12.92 -35.48,-19.38 -63.59,-19.38 -3.55,0 -6.27,0 -8.09,0.09 -1.91,0.09 -3.73,0.27 -5.46,0.45l0 -38.21c1.36,0 3.45,0.1 6.18,0.28 2.82,0.18 4.92,0.27 6.28,0.27 26.84,0 47.04,-5.91 60.77,-17.56 13.65,-11.73 20.47,-29.2 20.47,-52.31 0,-20.38 -6.18,-36.57 -18.65,-48.58 -12.46,-12.01 -29.29,-18.01 -50.58,-18.01 -22.74,0 -40.48,5.55 -53.13,16.65 -12.74,11.09 -19.56,27.2 -20.65,48.3l-45.85 -0.27c1.82,-33.48 13.01,-59.22 33.75,-77.15 20.65,-17.92 49.67,-26.83 86.97,-26.83 35.85,0 64.32,9.28 85.25,27.93 21.01,18.65 31.47,43.94 31.47,75.69 0,23.1 -6.09,42.57 -18.28,58.58 -12.19,16.02 -29.21,26.84 -51.04,32.48 23.2,3.91 41.39,14.38 54.49,31.39 13.19,16.92 19.75,38.57 19.75,64.86 0,35.39 -11.56,63.14 -34.76,83.25 -23.2,20.19 -55.31,30.29 -96.34,30.29 -36.12,0 -64.86,-9.19 -86.24,-27.66 -21.38,-18.46 -32.12,-43.21 -32.12,-74.32l0 -7.19zm440.96 98.8l0 -346.07 -79.7 0 26.11 -40.39 98.89 0 0 386.46 -45.3 0zm334.51 -358.62c-21.38,0 -38.21,5.82 -50.67,17.46 -12.47,11.56 -18.65,27.39 -18.65,47.49 0,19.84 6,35.39 18.1,46.58 12.1,11.19 28.84,16.74 50.13,16.74 22.02,0 39.21,-5.55 51.49,-16.65 12.28,-11.1 18.38,-26.65 18.38,-46.67 0,-20.1 -6.1,-35.93 -18.38,-47.49 -12.28,-11.64 -29.11,-17.46 -50.4,-17.46zm-0.54 331.33c25.74,0 45.85,-6.92 60.31,-20.84 14.38,-13.82 21.56,-33.11 21.56,-57.76 0,-25.11 -7.27,-44.67 -21.74,-58.96 -14.46,-14.19 -34.57,-21.28 -60.13,-21.28 -25.39,0 -45.4,7.18 -60.05,21.47 -14.55,14.28 -21.83,33.84 -21.83,58.77 0,24.65 7.19,43.94 21.56,57.76 14.46,13.92 34.57,20.84 60.32,20.84zm-50.68 -179.04c-22.01,-7.01 -38.57,-17.92 -49.58,-32.93 -11.01,-15.02 -16.56,-34.03 -16.56,-57.14 0,-28.56 10.83,-52.03 32.57,-70.32 21.65,-18.29 49.95,-27.38 84.79,-27.38 35.75,0 64.14,9.18 85.25,27.65 21.01,18.47 31.56,43.12 31.56,73.78 0,21.11 -5.73,39.21 -17.19,54.32 -11.46,15.1 -27.75,25.74 -48.67,32.02 25.38,7.28 45.03,19.83 59.04,37.84 14.01,17.93 21.02,39.49 21.02,64.78 0,35.48 -11.56,63.41 -34.76,83.7 -23.2,20.28 -55.31,30.38 -96.34,30.38 -40.57,0 -72.6,-10.19 -96.16,-30.57 -23.56,-20.28 -35.3,-47.85 -35.3,-82.51 0,-25.93 7.01,-47.94 20.93,-66.05 14.01,-18.19 33.84,-30.66 59.4,-37.57zm268.38 11.64l-8.74 -1.63 46.31 -190.14 171.4 0 0 39.85 -139.65 0 -24.56 100.43c8.91,-4.64 18.47,-8.19 28.56,-10.55 10.1,-2.46 20.75,-3.64 32.03,-3.64 38.21,0 68.41,11.37 90.61,34.21 22.2,22.83 33.3,53.85 33.3,92.88 0,44.4 -12.83,79.51 -38.49,105.17 -25.74,25.65 -60.68,38.48 -104.89,38.48 -26.84,0 -49.76,-4.64 -68.87,-14.01 -19.1,-9.28 -35.3,-23.65 -48.67,-43.21l32.75 -38.03c8.73,17.74 20.38,31.3 35.03,40.76 14.64,9.37 31.56,14.1 50.76,14.1 28.11,0 50.58,-9.01 67.68,-26.93 17.02,-17.92 25.57,-41.85 25.57,-71.69 0,-28.38 -8.83,-51.22 -26.47,-68.32 -17.74,-17.2 -41.31,-25.75 -70.78,-25.75 -15.47,0 -30.12,2.37 -44.04,7.1 -14.01,4.64 -26.92,11.64 -38.84,20.92zm414.21 194.69l0 -346.07 -79.7 0 26.11 -40.39 98.89 0 0 386.46 -45.3 0z"/>
  </g>
 </g>
</svg>
