<?xml version="1.0" standalone="no"?>
<!DOCTYPE svg PUBLIC "-//W3C//DTD SVG 20010904//EN"
 "http://www.w3.org/TR/2001/REC-SVG-20010904/DTD/svg10.dtd">
<svg version="1.0" xmlns="http://www.w3.org/2000/svg"
 width="425.000000pt" height="425.000000pt" viewBox="0 0 425.000000 425.000000"
 preserveAspectRatio="xMidYMid meet">

<g transform="translate(0.000000,425.000000) scale(0.100000,-0.100000)"
fill="#000000" stroke="none">
<path d="M1870 2604 l0 -216 50 45 c32 29 66 49 95 56 l46 11 -28 37 c-23 29
-28 47 -28 90 0 50 3 57 37 89 50 46 106 48 148 5 32 -32 48 -77 32 -93 -16
-16 -87 1 -110 25 -11 12 -22 31 -24 42 -2 16 3 20 29 20 17 0 29 3 26 7 -2 5
-18 8 -34 8 -57 0 -102 -78 -85 -146 10 -39 55 -76 117 -98 139 -48 198 -201
127 -329 -48 -86 -146 -113 -238 -64 -100 53 -121 197 -42 280 52 55 118 71
202 47 l35 -10 -25 20 c-62 48 -171 53 -233 10 -138 -94 -123 -325 26 -410 96
-55 201 -50 288 15 140 102 126 328 -25 424 l-44 27 33 30 c82 73 46 236 -62
280 -22 10 -77 14 -173 14 l-140 0 0 -216z"/>
<path d="M982 1875 c-39 -17 -66 -73 -57 -116 14 -64 112 -103 161 -63 19 15
19 16 -1 8 -56 -20 -84 -17 -115 14 -39 39 -41 87 -5 127 22 22 32 26 63 23
20 -3 46 -8 57 -13 18 -7 19 -6 5 8 -22 24 -70 29 -108 12z"/>
<path d="M1148 1785 c-20 -58 -34 -105 -29 -105 4 0 14 18 21 40 12 36 16 40
47 40 34 0 34 0 59 -69 2 -8 7 -11 10 -8 5 4 -64 207 -70 207 0 0 -18 -47 -38
-105z m57 13 c6 -25 5 -28 -19 -28 -30 0 -29 -2 -15 39 12 35 24 31 34 -11z"/>
<path d="M1470 1868 c-90 -61 -48 -189 62 -188 85 1 129 106 71 170 -39 43
-87 49 -133 18z m113 -18 c49 -39 42 -116 -14 -145 -40 -21 -63 -19 -98 11
-89 74 21 206 112 134z"/>
<path d="M3184 1880 c-36 -14 -64 -59 -64 -102 0 -86 101 -130 168 -73 89 75
3 219 -104 175z m101 -35 c36 -36 34 -88 -5 -127 -27 -26 -36 -30 -67 -25 -46
8 -72 33 -79 78 -14 82 92 133 151 74z"/>
<path d="M1292 1778 c1 -57 3 -86 5 -65 6 49 33 50 62 1 12 -20 24 -34 27 -31
3 3 -2 19 -11 35 -17 28 -17 30 4 51 26 26 27 72 3 94 -10 10 -35 17 -55 17
l-37 0 2 -102z m82 70 c9 -12 16 -28 16 -35 0 -22 -39 -53 -65 -53 -24 0 -25
3 -25 55 0 54 0 55 29 55 20 0 35 -8 45 -22z"/>
<path d="M1660 1780 l0 -100 53 2 c50 1 50 2 10 5 l-43 4 0 95 c0 56 -4 94
-10 94 -6 0 -10 -40 -10 -100z"/>
<path d="M1870 1780 l0 -100 33 0 c65 0 99 72 56 118 -11 12 -17 27 -14 32 4
6 3 19 0 30 -5 15 -15 20 -41 20 l-34 0 0 -100z m63 76 c6 -16 -11 -36 -30
-36 -7 0 -13 11 -13 25 0 18 5 25 19 25 10 0 21 -6 24 -14z m12 -70 c27 -27
24 -58 -8 -81 -39 -27 -47 -19 -47 45 0 68 14 77 55 36z"/>
<path d="M2010 1780 l0 -100 53 2 52 2 -47 3 -48 4 0 40 0 39 45 0 c25 0 45 5
45 10 0 6 -20 10 -45 10 l-45 0 0 39 0 40 48 4 47 3 -52 2 -53 2 0 -100z"/>
<path d="M2140 1780 c0 -60 4 -100 10 -100 6 0 10 16 10 35 0 27 4 35 18 35
11 0 27 -14 38 -35 10 -19 22 -35 26 -35 13 0 9 13 -11 40 -19 24 -19 24 5 53
28 33 30 54 8 85 -12 17 -25 22 -60 22 l-44 0 0 -100z m81 80 c43 -24 10 -100
-43 -100 -15 0 -18 9 -18 55 0 49 2 55 21 55 11 0 29 -5 40 -10z"/>
<path d="M2280 1780 c0 -120 18 -135 22 -18 l3 81 45 -81 c25 -45 48 -82 53
-82 4 0 6 46 5 103 l-2 102 -5 -85 -6 -85 -48 83 c-26 45 -52 82 -57 82 -6 0
-10 -42 -10 -100z"/>
<path d="M2472 1784 c-34 -95 -39 -142 -8 -64 14 35 20 40 47 40 26 0 33 -5
46 -40 31 -77 31 -39 1 43 -17 45 -33 90 -35 100 -3 9 -8 17 -12 17 -3 0 -21
-43 -39 -96z m56 19 c10 -31 10 -33 -14 -33 -26 0 -31 18 -13 52 12 23 13 23
27 -19z"/>
<path d="M2612 1778 c1 -57 3 -86 5 -65 5 49 34 50 65 2 30 -46 46 -45 18 1
l-22 35 21 15 c27 19 28 74 3 97 -10 10 -35 17 -55 17 l-37 0 2 -102z m82 73
c24 -26 17 -62 -15 -80 -42 -23 -59 -9 -59 49 0 48 1 50 28 50 16 0 37 -9 46
-19z"/>
<path d="M2750 1780 c0 -93 1 -100 20 -100 55 0 100 49 100 110 0 43 -47 90
-89 90 l-31 0 0 -100z m73 70 c32 -26 41 -62 23 -104 -13 -32 -65 -63 -80 -49
-3 4 -6 44 -6 90 0 74 2 83 19 83 10 0 30 -9 44 -20z"/>
<path d="M2900 1780 c0 -60 4 -100 10 -100 6 0 10 40 10 100 0 60 -4 100 -10
100 -6 0 -10 -40 -10 -100z"/>
<path d="M2950 1781 c0 -61 4 -101 10 -101 6 0 10 36 10 88 l0 87 46 -80 c25
-44 50 -84 55 -89 5 -6 8 30 7 95 l-2 104 -5 -83 -6 -84 -45 78 c-25 43 -51
79 -58 82 -9 3 -12 -22 -12 -97z"/>
<path d="M1460 1575 c19 -19 36 -35 39 -35 3 0 -10 16 -29 35 -19 19 -36 35
-39 35 -3 0 10 -16 29 -35z"/>
<path d="M1572 1580 c0 -19 2 -27 5 -17 2 9 2 25 0 35 -3 9 -5 1 -5 -18z"/>
<path d="M1723 1575 c0 -22 2 -30 4 -17 2 12 2 30 0 40 -3 9 -5 -1 -4 -23z"/>
<path d="M1851 1594 c0 -11 3 -14 6 -6 3 7 2 16 -1 19 -3 4 -6 -2 -5 -13z"/>
<path d="M1933 1575 c0 -22 2 -30 4 -17 2 12 2 30 0 40 -3 9 -5 -1 -4 -23z"/>
<path d="M2483 1570 c0 -25 2 -35 4 -22 2 12 2 32 0 45 -2 12 -4 2 -4 -23z"/>
<path d="M2673 1570 c0 -25 2 -35 4 -22 2 12 2 32 0 45 -2 12 -4 2 -4 -23z"/>
<path d="M2560 1586 c0 -2 8 -10 18 -17 15 -13 16 -12 3 4 -13 16 -21 21 -21
13z"/>
<path d="M2385 1560 c10 -11 20 -20 23 -20 3 0 -3 9 -13 20 -10 11 -20 20 -23
20 -3 0 3 -9 13 -20z"/>
</g>
</svg>
